<svg width="56" height="56" viewBox="0 0 56 56" xmlns="http://www.w3.org/2000/svg"><title>frontend</title><desc>Created with Sketch.</desc><g fill="#fff"><path d="M27.923 23.436c-2.455 0-4.49 1.973-4.49 4.423 0 2.51 2.035 4.482 4.49 4.482 2.456 0 4.492-1.973 4.492-4.483 0-2.45-2.036-4.424-4.492-4.424zm0 7.65c-1.736 0-3.173-1.434-3.173-3.227 0-.36.24-.6.6-.6.358 0 .657.24.657.6 0 1.075.84 1.912 1.916 1.912 1.078 0 1.917-.837 1.917-1.913 0-1.017-.84-1.913-1.917-1.913-.36 0-.658-.24-.658-.598 0-.36.3-.658.658-.658 1.737 0 3.174 1.434 3.174 3.167 0 1.792-1.437 3.227-3.174 3.227z"/><path d="M27.923 20.21c-6.706 0-12.455 6.035-13.832 7.65 1.378 1.613 7.127 7.65 13.833 7.65 6.707 0 12.456-6.037 13.833-7.65-1.377-1.615-7.126-7.65-13.833-7.65zm0 13.387c-3.173 0-5.748-2.57-5.748-5.738 0-3.168 2.575-5.738 5.748-5.738 3.174 0 5.75 2.57 5.75 5.737 0 3.167-2.576 5.737-5.75 5.737z"/><path d="M0 0v56h27.052v-1.856L5.602 41.8c-.268-.155-.433-.44-.433-.748V15.867c0-.308.164-.593.43-.747L27.485 2.527c.266-.153.594-.153.86 0L50.227 15.12c.267.154.43.44.43.747v25.185c0 .31-.163.594-.43.747l-19 10.927c-.41.237-.938.095-1.175-.317-.238-.413-.096-.94.317-1.176l18.565-10.68v-24.19L27.915 4.27 6.89 16.365v24.19l21.452 12.344c.267.153.43.437.43.745V56H56V0H0zm27.923 36.824c-8.323 0-14.91-8.188-15.21-8.546-.18-.24-.18-.538 0-.777.3-.358 6.887-8.546 15.21-8.546 8.324 0 14.91 8.188 15.21 8.547.18.24.18.538 0 .778-.3.358-6.886 8.546-15.21 8.546z"/></g></svg>