<svg width="211" height="163" viewBox="0 0 211 163" xmlns="http://www.w3.org/2000/svg"><title>frontend</title><desc>Created with Sketch.</desc><g fill="#fff"><path d="M105.54 58.977c-19.556 0-36.317 17.57-40.332 22.268 4.015 4.697 20.776 22.268 40.33 22.268 19.555 0 36.316-17.57 40.332-22.268-4.016-4.698-20.777-22.268-40.33-22.268zm0 38.968c-9.255 0-16.762-7.48-16.762-16.7 0-9.22 7.507-16.7 16.76-16.7 9.254 0 16.762 7.48 16.762 16.7 0 9.22-7.508 16.7-16.76 16.7z"/><path d="M105.54 68.37c-7.16 0-13.096 5.742-13.096 12.875 0 7.306 5.936 13.047 13.095 13.047 7.157 0 13.093-5.74 13.093-13.047 0-7.133-5.936-12.874-13.094-12.874zm0 22.27c-5.064 0-9.255-4.176-9.255-9.395 0-1.044.698-1.74 1.746-1.74 1.05 0 1.922.696 1.922 1.74 0 3.13 2.444 5.566 5.587 5.566 3.14 0 5.585-2.434 5.585-5.565 0-2.958-2.444-5.567-5.586-5.567-1.05 0-1.922-.696-1.922-1.74s.873-1.914 1.92-1.914c5.064 0 9.254 4.176 9.254 9.22 0 5.22-4.19 9.395-9.253 9.395z"/><path d="M0 0v163h102.988v-5.25l-62.543-35.93c-.78-.448-1.26-1.276-1.26-2.173v-73.31c0-.896.487-1.725 1.265-2.173L104.255 7.51c.776-.445 1.73-.445 2.507 0l63.798 36.654c.78.448 1.254 1.277 1.254 2.174v73.31c0 .896-.474 1.725-1.254 2.172l-55.39 31.808c-1.202.69-2.736.278-3.428-.923-.692-1.2-.282-2.733.92-3.424l54.128-31.084V47.788l-61.29-35.21-61.29 35.21v70.408l62.543 35.93c.78.45 1.26 1.278 1.26 2.175v6.7H211V0H0zm105.54 107.34c-24.27 0-43.475-23.834-44.348-24.878-.524-.696-.524-1.565 0-2.26.873-1.045 20.078-24.878 44.347-24.878 24.267 0 43.472 23.833 44.345 24.877.524.697.524 1.566 0 2.262-.873 1.044-20.078 24.878-44.346 24.878z"/></g></svg>