<svg width="420" height="325" viewBox="0 0 420 325" xmlns="http://www.w3.org/2000/svg"><title>ux</title><desc>Created with Sketch.</desc><g fill="#fff"><path d="M258.767 204.972c-.35 1.748-1.748 2.797-3.496 2.797-1.747 0-3.145-1.05-3.495-2.798-2.797-10.838-9.09-17.13-17.13-17.13-8.392 0-16.782 6.99-16.782 18.878 0 15.383 25.172 37.758 37.408 47.197 12.237-9.44 37.41-31.814 37.41-47.197 0-11.887-8.39-18.88-16.782-18.88-8.04 0-14.334 6.294-17.13 17.132"/><path d="M128 101.837V113h142v-11.163C270 95.894 265.06 91 259.117 91H139.55c-5.943 0-11.55 4.894-11.55 10.837zm48.96-3.496c2.096 0 3.844 1.4 3.844 3.497 0 2.098-1.748 3.846-3.845 3.846-2.1 0-3.847-1.748-3.847-3.846s1.748-3.496 3.846-3.496zm-15.035 0c2.098 0 3.846 1.4 3.846 3.497 0 2.098-1.747 3.846-3.845 3.846-2.097 0-3.496-1.748-3.496-3.846s1.398-3.496 3.495-3.496zm-14.683 0c2.097 0 3.496 1.4 3.496 3.497 0 2.098-1.4 3.846-3.496 3.846-2.098 0-3.846-1.748-3.846-3.846s1.748-3.496 3.846-3.496z"/><path d="M205 309.274c0-1.79.956-3.44 2.506-4.334L332 233.298V92.318L207.506 20.676c-1.55-.893-2.506-2.545-2.506-4.334V0H0v325h205v-15.726zm95.02-102.554c0 23.773-40.903 53.49-42.65 54.888-.7.35-1.4.7-2.1.7-.698 0-1.397-.35-2.097-.7-1.748-1.398-42.652-31.115-42.652-54.888 0-16.432 12.237-26.57 24.124-26.57 6.992 0 15.383 3.845 20.627 13.285 5.245-9.44 13.636-13.285 20.628-13.285 11.887 0 24.123 10.138 24.123 26.57zM259.118 83C269.255 83 278 91.698 278 101.837v59.783c0 2.098-2.077 3.846-4.175 3.846-2.097 0-3.825-1.748-3.825-3.846V121H128v70.337c0 6.293 5.607 11.663 11.55 11.663h52.442c2.097 0 3.496 1.402 3.496 3.5s-1.4 3.5-3.496 3.5H139.55c-9.845 0-17.55-7.695-18.55-17.757V100.96c1-9.74 8.705-17.96 18.55-17.96h119.567zm-65.862 221.367c-.78 0-1.565-.192-2.3-.574l-11.892-6.845-98.55-56.843c-1.548-.892-2.513-2.544-2.513-4.33V89.25c0-1.787.965-3.438 2.512-4.33l109.22-63.003c2.395-1.383 5.453-.56 6.833 1.83 1.38 2.392.55 5.447-1.838 6.828L88 92.14v140.88l95.74 55.088 12.014 6.927c2.39 1.38 3.214 4.437 1.834 6.83-.925 1.605-2.604 2.502-4.333 2.502z"/><path d="M215 0v13.45l124.494 71.642c1.55.893 2.506 2.545 2.506 4.334V236.19c0 1.79-.956 3.44-2.506 4.334L215 312.166V325h205V0H215"/></g></svg>