<svg width="56" height="56" viewBox="0 0 56 56" xmlns="http://www.w3.org/2000/svg"><title>ux</title><desc>Created with Sketch.</desc><g fill="#fff"><path d="M36.313 35.265c-.06.3-.3.482-.602.482-.3 0-.54-.18-.602-.482-.482-1.867-1.566-2.952-2.95-2.952-1.447 0-2.893 1.205-2.893 3.253 0 2.65 4.337 6.506 6.446 8.133 2.11-1.628 6.446-5.483 6.446-8.134 0-2.048-1.445-3.253-2.89-3.253-1.387 0-2.47 1.085-2.953 2.952"/><path d="M13.785 17.494v1.977h24.467v-1.976c0-1.024-.855-1.986-1.88-1.986h-20.6c-1.025 0-1.987.962-1.987 1.986zm8.432-.602c.36 0 .663.24.663.602s-.302.663-.663.663c-.36 0-.663-.3-.663-.663 0-.36.302-.602.663-.602zm-2.59 0c.36 0 .662.24.662.602s-.302.663-.663.663c-.362 0-.603-.3-.603-.663 0-.36.24-.602.603-.602zm-2.53 0c.36 0 .602.24.602.602s-.242.663-.603.663c-.362 0-.663-.3-.663-.663 0-.36.3-.602.663-.602z"/><path d="M28.775 0v2.264L50.227 14.61c.267.153.43.437.43.746v25.288c0 .31-.163.593-.43.747L28.775 53.737V56H56V0H28.775"/><path d="M27.052 53.237c0-.308.165-.593.432-.747l21.45-12.344V15.854L27.485 3.51c-.267-.154-.432-.44-.432-.747V0H0v56h27.052v-2.763zm16.37-17.67c0 4.096-7.05 9.216-7.35 9.457-.12.06-.24.12-.36.12-.122 0-.242-.06-.363-.12-.302-.24-7.35-5.36-7.35-9.458 0-2.83 2.108-4.578 4.157-4.578 1.204 0 2.65.663 3.554 2.29.904-1.627 2.35-2.29 3.555-2.29 2.048 0 4.157 1.747 4.157 4.578zM36.372 14.3c1.748 0 3.26 1.445 3.26 3.192v10.3c0 .363-.36.664-.72.664-.362 0-.66-.3-.66-.663v-7.118H13.785v12.24c0 1.083.962 1.89 1.986 1.89h9.037c.362 0 .603.327.603.688 0 .362-.24.69-.603.69H15.77c-1.695 0-3.192-1.38-3.192-3.113v-15.73c0-1.677 1.497-3.04 3.193-3.04h20.603zm-11.347 38.09c-.134 0-.27-.033-.396-.1l-2.05-1.18L5.6 41.32c-.266-.155-.43-.44-.43-.747V15.326c0-.308.164-.593.43-.747L24.42 3.723c.41-.238.938-.097 1.176.315.237.41.096.938-.315 1.176L6.893 15.823v24.275l16.495 9.492 2.07 1.194c.41.238.553.764.315 1.176-.16.277-.45.432-.747.432z"/></g></svg>