<svg width="210" height="163" viewBox="0 0 210 163" xmlns="http://www.w3.org/2000/svg"><title>ux</title><desc>Created with Sketch.</desc><g fill="#fff"><path d="M129.383 102.8c-.174.878-.874 1.404-1.748 1.404s-1.573-.526-1.748-1.403c-1.398-5.434-4.544-8.59-8.565-8.59-4.196 0-8.39 3.506-8.39 9.468 0 7.715 12.585 18.937 18.703 23.67 6.118-4.733 18.704-15.955 18.704-23.67 0-5.962-4.196-9.47-8.39-9.47-4.02 0-7.168 3.158-8.566 8.593"/><path d="M64 51.075v5.6h71v-5.6c0-2.98-2.47-5.435-5.44-5.435H69.774c-2.972 0-5.775 2.455-5.775 5.435zm24.48-1.753c1.048 0 1.922.7 1.922 1.753 0 1.052-.874 1.93-1.922 1.93-1.05 0-1.924-.878-1.924-1.93s.874-1.753 1.924-1.753zm-7.517 0c1.05 0 1.922.7 1.922 1.753 0 1.052-.874 1.93-1.922 1.93-1.05 0-1.748-.878-1.748-1.93s.7-1.753 1.748-1.753zm-7.342 0c1.05 0 1.75.7 1.75 1.753 0 1.052-.7 1.93-1.75 1.93-1.048 0-1.922-.878-1.922-1.93s.874-1.753 1.923-1.753z"/><path d="M102.5 155.113c0-.897.478-1.726 1.253-2.174L166 117.007V46.3l-62.247-35.93c-.775-.448-1.253-1.277-1.253-2.174V0H0v163h102.5v-7.887zm47.51-51.435c0 11.923-20.45 26.827-21.325 27.528-.35.176-.7.352-1.05.352-.35 0-.7-.176-1.05-.352-.872-.7-21.325-15.605-21.325-27.528 0-8.24 6.118-13.326 12.062-13.326 3.496 0 7.69 1.93 10.313 6.663 2.622-4.734 6.818-6.663 10.314-6.663 5.943 0 12.06 5.085 12.06 13.326zm-20.45-62.05c5.067 0 9.44 4.362 9.44 9.447V81.06c0 1.05-1.038 1.928-2.088 1.928-1.048 0-1.912-.877-1.912-1.93V60.687H64v35.277c0 3.156 2.803 5.85 5.775 5.85h26.22c1.05 0 1.75.702 1.75 1.755 0 1.052-.7 1.755-1.75 1.755h-26.22c-4.922 0-8.775-3.86-9.275-8.906V50.635c.5-4.885 4.353-9.007 9.275-9.007h59.784zM96.626 152.652c-.39 0-.782-.097-1.15-.288l-5.946-3.433-49.274-28.508c-.773-.447-1.256-1.276-1.256-2.172V44.763c0-.896.483-1.724 1.256-2.172l54.61-31.597c1.198-.693 2.727-.28 3.416.92.69 1.198.276 2.73-.918 3.423L44 46.212v70.656l47.87 27.63 6.007 3.473c1.196.694 1.607 2.227.917 3.426-.462.806-1.302 1.256-2.166 1.256z"/><path d="M107.5 0v6.746l62.247 35.93c.775.45 1.253 1.277 1.253 2.175v73.608c0 .898-.478 1.726-1.253 2.174l-62.247 35.93V163H210V0H107.5"/></g></svg>