<svg width="210" height="163" viewBox="0 0 210 163" xmlns="http://www.w3.org/2000/svg"><title>backend</title><desc>Created with Sketch.</desc><g fill="#fff"><path d="M123.09 106.426l7.167 7.365 8.04-8.065-7.34-7.19c-.524-.7-.7-1.577-.175-2.278 1.573-2.806 2.97-8.454 3.496-10.558.175-.703.874-1.442 1.748-1.442H146.5v-7.523h-10.474c-.874 0-1.573-.584-1.748-1.46-.524-1.93-1.922-7.482-3.496-10.288-.525-.7-.35-1.548.175-2.25l7.34-7.175-8.04-8.058-7.166 7.368c-.7.526-1.573.703-2.272.177-2.447-1.403-7.132-2.63-10.454-3.506-.7-.176-1.364-.876-1.364-1.753V39.623h-7.5v10.17c0 .876-.654 1.577-1.528 1.752-1.923.526-7.494 1.93-10.291 3.507-.7.527-1.562.352-2.26-.174l-7.162-7.364-8.038 8.065 7.343 7.19c.524.7.7 1.577.175 2.28-1.573 2.804-2.97 8.298-3.495 10.402-.175.7-.874 1.285-1.748 1.285H64v7.523h10.495c.874 0 1.573.74 1.748 1.44.525 2.105 1.923 7.735 3.496 10.54.523.7.35 1.588-.176 2.29l-7.34 7.192 8.04 8.07 7.166-7.365c.7-.526 1.573-.7 2.273-.175 2.797 1.58 8.346 2.982 10.444 3.508.698.175 1.353.877 1.353 1.754v10.362h7.5v-10.362c0-.877.665-1.58 1.364-1.754 2.098-.526 7.674-1.93 10.47-3.507.7-.525 1.557-.35 2.257.176zm-17.83-7.013c-10.313 0-18.704-8.416-18.704-18.762 0-10.344 8.39-18.76 18.704-18.76s18.704 8.416 18.704 18.76c0 10.347-8.39 18.763-18.704 18.763z"/><path d="M102.5 156.563l-62.247-35.93c-.775-.45-1.253-1.277-1.253-2.175V44.85c0-.897.478-1.725 1.253-2.173L102.5 6.747V0H0v163h102.5v-6.437"/><path d="M105.26 65.747c-8.216 0-14.858 6.663-14.858 14.904 0 8.242 6.642 14.905 14.858 14.905 8.216 0 14.86-6.663 14.86-14.904 0-8.24-6.644-14.903-14.86-14.903"/><path d="M107.5 0v8.196c0 .897-.478 1.726-1.253 2.174L44 46.3v70.707l62.247 35.932c.775.447 1.253 1.276 1.253 2.173V163H210V0H107.5zm-7.833 125.385c-1.05 0-2.167-.723-2.167-1.775v-10.696c-2.5-.7-5.996-1.578-8.444-2.805l-7.63 7.538c-.7.702-1.892.702-2.59 0l-10.474-10.52c-.35-.35-.517-.877-.517-1.403s.178-.876.528-1.227l7.518-7.675c-1.222-2.455-2.094-5.543-2.793-8.552H62.434c-.982 0-1.934-.847-1.934-1.81V74.84c0-.96.952-1.615 1.934-1.615h10.663c.7-3.01 1.573-6.194 2.797-8.65l-7.518-7.742c-.7-.7-.7-1.943 0-2.644l10.49-10.53c.698-.7 1.922-.704 2.62-.003l7.57 7.54c2.448-1.23 5.944-2.107 8.444-2.81V37.693c0-1.052 1.118-2.083 2.167-2.083h11.188c1.048 0 2.145 1.03 2.145 2.082v10.696c2.5.702 6.007 1.578 8.454 2.806l7.635-7.54c.7-.7 1.894-.7 2.594 0l10.475 10.52c.348.35.516.877.516 1.403s-.178.877-.528 1.228l-7.518 7.77c1.223 2.456 2.096 5.64 2.794 8.65h10.663c1.05 0 1.913.763 1.913 1.815v11.222c0 1.052-.863 2.01-1.912 2.01h-10.663c-.7 3.008-1.574 6.096-2.798 8.55l7.517 7.696c.7.7.7 1.918 0 2.62l-10.488 10.515c-.7.702-1.923.7-2.622-.002l-7.58-7.54c-2.447 1.228-5.954 2.103-8.454 2.804v10.696c0 1.052-1.097 1.775-2.145 1.775H99.666zM171 118.25c0 .896-.47 1.725-1.245 2.172l-49.268 28.51-5.945 3.432c-.368.19-.76.288-1.15.288-.864 0-1.704-.45-2.167-1.256-.69-1.2-.28-2.732.916-3.425l6-3.473 47.86-27.63V46.213l-53.353-30.876c-1.195-.693-1.602-2.225-.913-3.424.69-1.2 2.22-1.612 3.416-.92l54.604 31.6c.774.447 1.246 1.275 1.246 2.17v73.488z"/></g></svg>