<svg width="420" height="325" viewBox="0 0 420 325" xmlns="http://www.w3.org/2000/svg"><title>backend</title><desc>Created with Sketch.</desc><g fill="#fff"><path d="M246.18 212.2l14.335 14.684 16.082-16.082-14.683-14.334c-1.05-1.4-1.4-3.147-.35-4.545 3.147-5.594 5.943-16.856 6.992-21.05.35-1.4 1.748-2.873 3.496-2.873H293v-15h-20.948c-1.748 0-3.146-1.166-3.496-2.914-1.05-3.845-3.845-14.916-6.992-20.51-1.05-1.4-.7-3.088.35-4.487l14.683-14.306-16.082-16.067-14.334 14.69c-1.397 1.05-3.145 1.403-4.544.354-4.894-2.796-14.265-5.24-20.908-6.99-1.398-.35-2.728-1.745-2.728-3.494V79h-15v20.276c0 1.75-1.31 3.147-3.057 3.496-3.846 1.05-14.988 3.846-20.582 6.993-1.397 1.05-3.123.7-4.522-.35l-14.322-14.683-16.077 16.082 14.686 14.333c1.048 1.4 1.4 3.147.35 4.545-3.146 5.594-5.942 16.55-6.99 20.744-.35 1.398-1.748 2.564-3.496 2.564H128v15h20.99c1.748 0 3.146 1.473 3.496 2.872 1.05 4.195 3.846 15.42 6.992 21.013 1.05 1.4.7 3.166-.35 4.564l-14.683 14.342 16.082 16.087 14.334-14.682c1.4-1.05 3.147-1.397 4.546-.35 5.594 3.148 16.69 5.945 20.887 6.994 1.398.35 2.707 1.75 2.707 3.497V243h15v-20.66c0-1.75 1.33-3.148 2.728-3.497 4.196-1.05 15.35-3.846 20.943-6.992 1.4-1.048 3.113-.7 4.51.35zm-35.66-13.984c-20.626 0-37.407-16.78-37.407-37.408 0-20.627 16.78-37.41 37.408-37.41s37.41 16.783 37.41 37.41c0 20.627-16.782 37.408-37.41 37.408z"/><path d="M205 312.166L80.506 240.524C78.956 239.63 78 237.98 78 236.19V89.426c0-1.79.956-3.44 2.506-4.334L205 13.45V0H0v325h205v-12.834"/><path d="M210.52 131.09c-16.43 0-29.716 13.286-29.716 29.718 0 16.43 13.285 29.716 29.717 29.716 16.433 0 29.718-13.285 29.718-29.716 0-16.432-13.285-29.717-29.717-29.717"/><path d="M215 0v16.342c0 1.79-.956 3.44-2.506 4.334L88 92.318v140.98l124.494 71.642c1.55.893 2.506 2.545 2.506 4.334V325h205V0H215zm-15.666 250c-2.098 0-4.334-1.44-4.334-3.538v-21.326c-5-1.4-11.992-3.147-16.887-5.594l-15.26 15.033c-1.4 1.4-3.786 1.4-5.184 0L136.722 213.6c-.7-.7-1.034-1.75-1.034-2.798 0-1.05.357-1.748 1.056-2.447l15.037-15.304c-2.447-4.893-4.192-11.05-5.59-17.05h-21.326c-1.964 0-3.867-1.69-3.867-3.608v-23.17c0-1.915 1.903-3.222 3.867-3.222h21.326c1.398-6 3.146-12.35 5.594-17.244l-15.034-15.44c-1.398-1.397-1.398-3.873 0-5.27l20.977-20.992c1.398-1.398 3.846-1.405 5.244-.007l15.14 15.03C183.007 99.63 190 97.877 195 96.48V75.153c0-2.097 2.236-4.153 4.334-4.153h22.375c2.096 0 4.29 2.056 4.29 4.153V96.48c5 1.398 12.013 3.146 16.908 5.593l15.27-15.033c1.4-1.398 3.79-1.398 5.19 0l20.95 20.977c.698.7 1.033 1.748 1.033 2.797 0 1.048-.355 1.748-1.054 2.447l-15.037 15.496c2.446 4.895 4.19 11.244 5.59 17.244h21.325c2.098 0 3.825 1.522 3.825 3.62v22.375c0 2.098-1.727 4.005-3.825 4.005H274.85c-1.4 6-3.147 12.157-5.595 17.05l15.034 15.344c1.397 1.4 1.397 3.826 0 5.224l-20.978 20.967c-1.398 1.4-3.846 1.394-5.244-.005l-15.16-15.036c-4.895 2.448-11.908 4.193-16.908 5.592v21.326c0 2.098-2.194 3.538-4.29 3.538h-22.376zM342 235.774c0 1.787-.943 3.44-2.49 4.33l-98.536 56.844-11.89 6.845c-.735.382-1.52.574-2.298.574-1.73 0-3.41-.897-4.336-2.503-1.38-2.392-.558-5.45 1.833-6.83l11.997-6.926 95.72-55.09V92.14L225.293 30.578c-2.388-1.38-3.203-4.436-1.824-6.827 1.38-2.39 4.437-3.213 6.83-1.83l109.208 63c1.547.894 2.492 2.545 2.492 4.332v146.522z"/></g></svg>