<svg width="211" height="163" viewBox="0 0 211 163" xmlns="http://www.w3.org/2000/svg"><title>backend</title><desc>Created with Sketch.</desc><g fill="#fff"><path d="M123.677 106.426l7.2 7.365 8.08-8.065-7.376-7.19c-.526-.7-.702-1.577-.175-2.278 1.58-2.806 2.985-8.454 3.512-10.558.176-.703.88-1.442 1.757-1.442h10.524v-7.523h-10.524c-.878 0-1.58-.584-1.757-1.46-.527-1.93-1.93-7.482-3.512-10.288-.527-.7-.35-1.548.176-2.25l7.377-7.175-8.08-8.058-7.2 7.368c-.703.526-1.58.703-2.284.177-2.458-1.403-7.166-2.63-10.503-3.506-.703-.176-1.37-.876-1.37-1.753V39.623h-7.537v10.17c0 .876-.657 1.577-1.535 1.752-1.933.526-7.53 1.93-10.34 3.507-.703.527-1.57.352-2.273-.174l-7.195-7.364-8.077 8.065 7.38 7.19c.525.7.702 1.577.175 2.28-1.58 2.804-2.985 8.298-3.512 10.402-.176.7-.878 1.285-1.756 1.285H64.305v7.523H74.85c.878 0 1.58.74 1.756 1.44.527 2.105 1.932 7.735 3.513 10.54.526.7.35 1.588-.177 2.29l-7.377 7.192 8.08 8.07 7.2-7.365c.703-.526 1.58-.7 2.284-.175 2.81 1.58 8.385 2.982 10.493 3.508.703.175 1.36.877 1.36 1.754v10.362h7.536v-10.362c0-.877.667-1.58 1.37-1.754 2.108-.526 7.71-1.93 10.52-3.507.703-.525 1.564-.35 2.267.176zm-17.915-7.013c-10.363 0-18.793-8.416-18.793-18.762 0-10.344 8.43-18.76 18.792-18.76 10.362 0 18.793 8.416 18.793 18.76 0 10.347-8.43 18.763-18.793 18.763z"/><path d="M102.988 156.563l-62.543-35.93c-.78-.45-1.26-1.277-1.26-2.175V44.85c0-.897.48-1.725 1.26-2.173l62.543-35.93V0H0v163h102.988v-6.437"/><path d="M105.762 65.747c-8.255 0-14.93 6.663-14.93 14.904 0 8.242 6.675 14.905 14.93 14.905 8.255 0 14.93-6.663 14.93-14.904 0-8.24-6.675-14.903-14.93-14.903"/><path d="M108.012 0v8.196c0 .897-.48 1.726-1.26 2.174L44.21 46.3v70.707l62.543 35.932c.78.447 1.26 1.276 1.26 2.173V163H211V0H108.012zm-7.87 125.385c-1.054 0-2.178-.723-2.178-1.775v-10.696c-2.512-.7-6.024-1.578-8.483-2.805l-7.666 7.538c-.703.702-1.902.702-2.604 0l-10.523-10.52c-.35-.35-.52-.877-.52-1.403s.18-.876.532-1.227l7.553-7.675c-1.23-2.455-2.106-5.543-2.808-8.552H62.73c-.986 0-1.942-.847-1.942-1.81V74.84c0-.96.956-1.615 1.943-1.615h10.715c.702-3.01 1.58-6.194 2.81-8.65l-7.553-7.742c-.702-.7-.702-1.943 0-2.644l10.54-10.53c.7-.7 1.93-.704 2.633-.003l7.606 7.54c2.46-1.23 5.972-2.107 8.484-2.81V37.693c0-1.052 1.124-2.083 2.178-2.083h11.24c1.054 0 2.156 1.03 2.156 2.082v10.696c2.512.702 6.035 1.578 8.494 2.806l7.672-7.54c.703-.7 1.904-.7 2.607 0l10.525 10.52c.352.35.52.877.52 1.403s-.18.877-.53 1.228l-7.554 7.77c1.23 2.456 2.107 5.64 2.81 8.65h10.713c1.054 0 1.92.763 1.92 1.815v11.222c0 1.052-.866 2.01-1.92 2.01H138.08c-.703 3.008-1.582 6.096-2.81 8.55l7.55 7.696c.704.7.704 1.918 0 2.62l-10.537 10.515c-.702.702-1.932.7-2.635-.002l-7.616-7.54c-2.46 1.228-5.982 2.103-8.494 2.804v10.696c0 1.052-1.102 1.775-2.156 1.775h-11.24zm71.672-7.135c0 .896-.473 1.725-1.25 2.172l-49.503 28.51-5.973 3.432c-.37.19-.763.288-1.154.288-.87 0-1.714-.45-2.178-1.256-.694-1.2-.28-2.732.92-3.425l6.028-3.473 48.087-27.63V46.213l-53.607-30.876c-1.2-.693-1.61-2.225-.916-3.424.693-1.2 2.23-1.612 3.432-.92l54.862 31.6c.778.447 1.252 1.275 1.252 2.17v73.488z"/></g></svg>