<svg width="210" height="163" viewBox="0 0 210 163" xmlns="http://www.w3.org/2000/svg"><title>internet-database</title><desc>Created with Sketch.</desc><g fill="#fff"><path d="M105.25 103.375c17.41 0 36.75-5.762 36.75-14.213V78.79c-6.5 6.146-20.297 10.372-36.75 10.372S75 84.936 68.5 78.79V89.16c0 8.45 19.34 14.213 36.75 14.213"/><path d="M105.26 68.61c17.41 0 36.733-5.955 36.733-14.407 0-8.45-19.323-14.214-36.733-14.214-17.41 0-36.732 5.762-36.732 14.213 0 8.452 19.323 14.406 36.732 14.406"/><path d="M105.25 84.936c17.41 0 36.75-5.763 36.75-14.214v-8.26c-6.5 6.147-20.297 10.18-36.75 10.18S75 68.61 68.5 62.463v8.26c0 8.45 19.34 14.214 36.75 14.214"/><path d="M105.25 121.815c17.41 0 36.75-5.763 36.75-14.214V97.23c-6.5 6.145-20.297 10.37-36.75 10.37S75 103.376 68.5 97.23v10.37c0 8.452 19.34 14.215 36.75 14.215"/><path d="M107.5 0v5.558l62.247 35.93c.775.45 1.253 1.277 1.253 2.174v73.31c0 .896-.472 1.725-1.248 2.172L106.255 155.8c-.772.444-1.72.444-2.493 0l-63.505-36.656c-.774-.447-1.257-1.276-1.257-2.173V43.663c0-.897.483-1.726 1.26-2.173L95.39 9.68c1.198-.69 2.727-.277 3.415.924.69 1.2.272 2.733-.925 3.424L44 45.113v70.408l61 35.212 61-35.21V45.11l-62.247-35.93c-.775-.448-1.253-1.277-1.253-2.174V0H0v163h210V0H107.5zm-2.25 35.764c22.958 0 40.75 8.26 40.75 18.44V107.6c0 10.373-17.792 18.44-40.75 18.44-22.957 0-40.75-8.067-40.75-18.44V54.204c0-10.18 17.793-18.44 40.75-18.44z"/></g></svg>