<svg width="56" height="56" viewBox="0 0 56 56" xmlns="http://www.w3.org/2000/svg"><title>internet-db</title><desc>Created with Sketch.</desc><g fill="#fff"><path d="M28 29.127c6 0 12.665-1.98 12.665-4.883v-2.838c-2.24 2.112-6.995 3.498-12.665 3.498-5.67 0-10.425-1.386-12.665-3.498v2.838c0 2.904 6.665 4.883 12.665 4.883"/><path d="M28 35.462c6 0 12.665-1.98 12.665-4.883v-3.564C38.425 29.126 33.67 30.58 28 30.58c-5.67 0-10.425-1.453-12.665-3.564v3.563C15.335 33.482 22 35.46 28 35.46"/><path d="M28 23.518c6 0 12.66-2.046 12.66-4.95 0-2.903-6.66-4.882-12.66-4.882s-12.66 1.98-12.66 4.883c0 2.902 6.66 4.948 12.66 4.948"/><path d="M28 41.798c6 0 12.665-1.98 12.665-4.884V33.35c-2.24 2.112-6.995 3.564-12.665 3.564-5.67 0-10.425-1.452-12.665-3.563v3.564c0 2.904 6.665 4.884 12.665 4.884"/><path d="M28.775 0v1.856L50.227 14.2c.267.155.43.44.43.748v25.185c0 .308-.163.593-.43.747L28.344 53.473c-.266.153-.594.153-.86 0L5.6 40.88c-.266-.154-.43-.44-.43-.747V14.948c0-.31.164-.594.43-.747l19-10.927c.412-.237.94-.095 1.176.317.237.413.095.94-.317 1.176L6.89 15.446v24.19L27.914 51.73l21.02-12.097v-24.19L27.485 3.102c-.267-.153-.432-.437-.432-.745V0H0v56h56V0H28.775zM28 12.234c7.912 0 14.043 2.837 14.043 6.335v18.344c0 3.564-6.13 6.335-14.043 6.335-7.912 0-14.043-2.772-14.043-6.336V18.57c0-3.5 6.13-6.336 14.043-6.336z"/></g></svg>