<svg width="211" height="163" viewBox="0 0 211 163" xmlns="http://www.w3.org/2000/svg"><title>internet-database</title><desc>Created with Sketch.</desc><g fill="#fff"><path d="M105.75 103.375c17.494 0 36.926-5.762 36.926-14.213V78.79c-6.53 6.146-20.393 10.372-36.925 10.372-16.53 0-30.393-4.226-36.924-10.373V89.16c0 8.45 19.433 14.213 36.925 14.213"/><path d="M105.762 68.61c17.492 0 36.907-5.955 36.907-14.407 0-8.45-19.416-14.214-36.908-14.214-17.493 0-36.908 5.762-36.908 14.213 0 8.452 19.415 14.406 36.908 14.406"/><path d="M105.75 84.936c17.494 0 36.926-5.763 36.926-14.214v-8.26c-6.53 6.147-20.393 10.18-36.925 10.18-16.53 0-30.393-4.033-36.924-10.18v8.26c0 8.45 19.433 14.214 36.925 14.214"/><path d="M105.75 121.815c17.494 0 36.926-5.763 36.926-14.214V97.23c-6.53 6.145-20.393 10.37-36.925 10.37-16.53 0-30.393-4.225-36.924-10.37v10.37c0 8.452 19.433 14.215 36.925 14.215"/><path d="M108.012 0v5.558l62.543 35.93c.78.45 1.26 1.277 1.26 2.174v73.31c0 .896-.475 1.725-1.254 2.172l-63.8 36.655c-.775.444-1.728.444-2.504 0L40.45 119.143c-.78-.447-1.264-1.276-1.264-2.173V43.663c0-.897.486-1.726 1.265-2.173L95.846 9.68c1.203-.69 2.74-.277 3.43.924.693 1.2.274 2.733-.928 3.424L44.21 45.113v70.408l61.29 35.212 61.29-35.21V45.11l-62.543-35.93c-.78-.448-1.26-1.277-1.26-2.174V0H0v163h211V0H108.012zm-2.26 35.764c23.067 0 40.943 8.26 40.943 18.44V107.6c0 10.373-17.876 18.44-40.944 18.44-23.066 0-40.943-8.067-40.943-18.44V54.204c0-10.18 17.877-18.44 40.944-18.44z"/></g></svg>