<svg width="420" height="325" viewBox="0 0 420 325" xmlns="http://www.w3.org/2000/svg"><title>internet-database</title><desc>Created with Sketch.</desc><g fill="#fff"><path d="M210.5 206.116c34.82 0 73.5-11.49 73.5-28.34v-20.68c-13 12.254-40.594 20.68-73.5 20.68s-60.5-8.426-73.5-20.68v20.68c0 16.85 38.68 28.34 73.5 28.34"/><path d="M210.52 136.797c34.82 0 73.466-11.872 73.466-28.723 0-16.85-38.646-28.34-73.465-28.34-34.818 0-73.464 11.49-73.464 28.34s38.646 28.723 73.465 28.723"/><path d="M210.5 169.35c34.82 0 73.5-11.49 73.5-28.34v-16.468c-13 12.255-40.594 20.298-73.5 20.298s-60.5-8.043-73.5-20.298v16.468c0 16.85 38.68 28.34 73.5 28.34"/><path d="M210.5 242.882c34.82 0 73.5-11.49 73.5-28.34v-20.68c-13 12.254-40.594 20.68-73.5 20.68s-60.5-8.426-73.5-20.68v20.68c0 16.85 38.68 28.34 73.5 28.34"/><path d="M215 0v11.082l124.494 71.64c1.55.894 2.506 2.546 2.506 4.335v146.167c0 1.79-.945 3.44-2.495 4.334L212.51 310.642c-1.544.888-3.442.888-4.986 0l-127.01-73.084c-1.55-.893-2.514-2.545-2.514-4.334V87.057c0-1.79.967-3.442 2.518-4.334l110.264-63.42c2.394-1.378 5.452-.554 6.83 1.84 1.376 2.394.543 5.45-1.85 6.827L88 89.95v140.383l122 70.206 122-70.207V89.95L207.506 18.306c-1.55-.893-2.506-2.545-2.506-4.334V0H0v325h420V0H215zm-4.5 71.308c45.916 0 81.5 16.468 81.5 36.766v106.468c0 20.68-35.584 36.766-81.5 36.766-45.915 0-81.5-16.086-81.5-36.766V108.074c0-20.298 35.585-36.766 81.5-36.766z"/></g></svg>