<svg width="420" height="325" viewBox="0 0 420 325" xmlns="http://www.w3.org/2000/svg"><title>frontend</title><desc>Created with Sketch.</desc><g fill="#fff"><path d="M210.077 117.592c-38.924 0-72.287 35.033-80.28 44.4 7.993 9.364 41.356 44.398 80.28 44.398s72.287-35.034 80.28-44.4c-7.993-9.365-41.356-44.398-80.28-44.398zm0 77.698c-18.42 0-33.363-14.916-33.363-33.3 0-18.383 14.944-33.298 33.363-33.298 18.42 0 33.363 14.915 33.363 33.3 0 18.382-14.944 33.298-33.363 33.298z"/><path d="M210.077 136.323c-14.25 0-26.065 11.446-26.065 25.668 0 14.57 11.816 26.016 26.065 26.016 14.248 0 26.065-11.447 26.065-26.015 0-14.22-11.817-25.667-26.065-25.667zm0 44.398c-10.078 0-18.42-8.323-18.42-18.73 0-2.08 1.39-3.468 3.476-3.468 2.085 0 3.823 1.388 3.823 3.47 0 6.242 4.865 11.098 11.12 11.098 6.256 0 11.12-4.856 11.12-11.1 0-5.896-4.864-11.1-11.12-11.1-2.085 0-3.822-1.386-3.822-3.468 0-2.08 1.737-3.815 3.823-3.815 10.078 0 18.42 8.325 18.42 18.384 0 10.407-8.342 18.73-18.42 18.73z"/><path d="M0 0v325h205v-10.466l-124.494-71.64C78.956 242 78 240.347 78 238.558V92.39c0-1.79.967-3.44 2.517-4.334l127.005-73.084c1.544-.888 3.446-.888 4.99 0l126.99 73.084c1.55.893 2.498 2.545 2.498 4.334V238.56c0 1.788-.945 3.44-2.496 4.333l-110.254 63.42c-2.394 1.378-5.448.554-6.825-1.84-1.377-2.394-.562-5.45 1.832-6.827L332 235.666V95.284L210 25.077 88 95.283v140.384l124.494 71.642c1.55.892 2.506 2.544 2.506 4.333V325h205V0H0zm210.077 214.02c-48.308 0-86.536-47.52-88.274-49.6-1.043-1.39-1.043-3.123 0-4.51 1.738-2.082 39.966-49.602 88.274-49.602 48.307 0 86.535 47.52 88.273 49.602 1.043 1.387 1.043 3.12 0 4.51-1.738 2.08-39.966 49.6-88.273 49.6z"/></g></svg>