<svg width="210" height="163" viewBox="0 0 210 163" xmlns="http://www.w3.org/2000/svg"><title>frontend</title><desc>Created with Sketch.</desc><g fill="#fff"><path d="M105.038 58.977c-19.462 0-36.143 17.57-40.14 22.268 3.997 4.697 20.678 22.268 40.14 22.268 19.463 0 36.144-17.57 40.14-22.268-3.996-4.698-20.677-22.268-40.14-22.268zm0 38.968c-9.21 0-16.68-7.48-16.68-16.7 0-9.22 7.47-16.7 16.68-16.7s16.682 7.48 16.682 16.7c0 9.22-7.472 16.7-16.681 16.7h-.002z"/><path d="M105.038 68.37c-7.124 0-13.032 5.742-13.032 12.875 0 7.306 5.908 13.047 13.032 13.047s13.033-5.74 13.033-13.047c0-7.133-5.907-12.874-13.03-12.874h-.002zm0 22.27c-5.038 0-9.21-4.176-9.21-9.395 0-1.044.695-1.74 1.74-1.74 1.04 0 1.91.696 1.91 1.74 0 3.13 2.433 5.566 5.56 5.566 3.128 0 5.56-2.434 5.56-5.565 0-2.958-2.432-5.567-5.56-5.567-1.042 0-1.91-.696-1.91-1.74s.868-1.914 1.91-1.914c5.04 0 9.21 4.176 9.21 9.22 0 5.22-4.17 9.395-9.21 9.395z"/><path d="M0 0v163h102.5v-5.25l-62.247-35.93c-.775-.448-1.253-1.276-1.253-2.173v-73.31c0-.896.483-1.725 1.258-2.173L103.76 7.51c.773-.445 1.724-.445 2.496 0l63.495 36.654c.776.448 1.25 1.277 1.25 2.174v73.31c0 .896-.472 1.725-1.248 2.172l-55.127 31.808c-1.197.69-2.724.278-3.412-.923-.69-1.2-.28-2.733.916-3.424L166 118.197V47.788l-61-35.21-61 35.21v70.408l62.247 35.93c.775.45 1.253 1.278 1.253 2.175v6.7H210V0H0zm105.038 107.34c-24.153 0-43.267-23.834-44.136-24.878-.522-.696-.522-1.565 0-2.26.868-1.045 19.983-24.878 44.136-24.878 24.154 0 43.268 23.833 44.137 24.877.52.697.52 1.566 0 2.262-.87 1.044-19.983 24.878-44.137 24.878z"/></g></svg>