<svg width="211" height="163" viewBox="0 0 211 163" xmlns="http://www.w3.org/2000/svg"><title>ux</title><desc>Created with Sketch.</desc><g fill="#fff"><path d="M130 102.8c-.176.878-.88 1.404-1.757 1.404-.878 0-1.58-.526-1.756-1.403-1.405-5.434-4.567-8.59-8.606-8.59-4.215 0-8.43 3.506-8.43 9.468 0 7.715 12.646 18.937 18.793 23.67 6.147-4.733 18.793-15.955 18.793-23.67 0-5.962-4.215-9.47-8.43-9.47-4.04 0-7.2 3.158-8.606 8.593"/><path d="M64.305 51.075v5.6h71.338v-5.6c0-2.98-2.482-5.435-5.468-5.435H70.107c-2.985 0-5.802 2.455-5.802 5.435zM88.9 49.322c1.054 0 1.932.7 1.932 1.753 0 1.052-.878 1.93-1.93 1.93-1.055 0-1.933-.878-1.933-1.93s.877-1.753 1.93-1.753zm-7.552 0c1.054 0 1.932.7 1.932 1.753 0 1.052-.878 1.93-1.932 1.93-1.053 0-1.756-.878-1.756-1.93s.703-1.753 1.756-1.753zm-7.376 0c1.053 0 1.756.7 1.756 1.753 0 1.052-.703 1.93-1.756 1.93-1.054 0-1.933-.878-1.933-1.93s.878-1.753 1.932-1.753z"/><path d="M102.988 155.113c0-.897.48-1.726 1.26-2.174l62.542-35.932V46.3l-62.543-35.93c-.78-.448-1.26-1.277-1.26-2.174V0H0v163h102.988v-7.887zm47.737-51.435c0 11.923-20.55 26.827-21.428 27.528-.35.176-.703.352-1.054.352-.35 0-.702-.176-1.054-.352-.88-.7-21.428-15.605-21.428-27.528 0-8.24 6.147-13.326 12.12-13.326 3.51 0 7.727 1.93 10.36 6.663 2.636-4.734 6.85-6.663 10.364-6.663 5.972 0 12.12 5.085 12.12 13.326zm-20.55-62.05c5.094 0 9.487 4.362 9.487 9.447V81.06c0 1.05-1.044 1.928-2.098 1.928-1.053 0-1.92-.877-1.92-1.93V60.687h-71.34v35.277c0 3.156 2.818 5.85 5.803 5.85h26.346c1.054 0 1.756.702 1.756 1.755 0 1.052-.703 1.755-1.757 1.755H70.107c-4.946 0-8.817-3.86-9.32-8.906V50.635c.503-4.885 4.374-9.007 9.32-9.007h60.068zM97.088 152.652c-.392 0-.787-.097-1.155-.288l-5.975-3.433-49.51-28.508c-.777-.447-1.262-1.276-1.262-2.172V44.763c0-.896.485-1.724 1.262-2.172l54.87-31.597c1.203-.693 2.74-.28 3.433.92.693 1.198.277 2.73-.923 3.423L44.21 46.212v70.656l48.098 27.63 6.035 3.473c1.2.694 1.615 2.227.92 3.426-.463.806-1.307 1.256-2.175 1.256z"/><path d="M108.012 0v6.746l62.543 35.93c.78.45 1.26 1.277 1.26 2.175v73.608c0 .898-.48 1.726-1.26 2.174l-62.543 35.93V163H211V0H108.012"/></g></svg>