<svg width="56" height="56" viewBox="0 0 56 56" xmlns="http://www.w3.org/2000/svg"><title>backend</title><desc>Created with Sketch.</desc><g fill="#fff"><path d="M28 22.535c-2.83 0-5.12 2.29-5.12 5.12 0 2.832 2.29 5.12 5.12 5.12s5.12-2.288 5.12-5.12c0-2.83-2.29-5.12-5.12-5.12"/><path d="M34.144 36.51l2.47 2.53 2.77-2.77-2.53-2.47c-.18-.24-.24-.542-.06-.783.543-.964 1.025-2.878 1.206-3.6.06-.242.3-.47.602-.47h3.613v-2.584h-3.613c-.3 0-.542-.227-.602-.528-.18-.663-.663-2.584-1.205-3.548-.18-.24-.12-.538.06-.78l2.53-2.468-2.77-2.77-2.47 2.53c-.24.18-.543.24-.784.06-.842-.482-2.455-.903-3.6-1.205-.24-.06-.468-.3-.468-.602V13.44h-2.584v3.613c0 .3-.228.542-.53.603-.66.18-2.582.662-3.546 1.204-.24.18-.54.12-.78-.06l-2.468-2.53-2.77 2.77 2.53 2.47c.18.242.24.543.06.784-.542.964-1.023 2.878-1.204 3.6-.06.242-.3.47-.602.47h-3.613v2.584h3.613c.3 0 .542.227.602.468.18.723.663 2.644 1.205 3.608.18.24.12.538-.06.78l-2.53 2.467 2.77 2.772 2.47-2.53c.24-.182.543-.242.784-.06.962.54 2.877 1.023 3.6 1.203.24.06.468.3.468.603v3.613h2.584V38.26c0-.302.228-.542.47-.603.72-.18 2.642-.662 3.606-1.205.24-.18.536-.12.776.06zM28 34.1c-3.554 0-6.446-2.89-6.446-6.445 0-3.554 2.892-6.445 6.446-6.445s6.446 2.89 6.446 6.445S31.554 34.1 28 34.1z"/><path d="M27.052 53.736L5.602 41.39c-.268-.153-.433-.437-.433-.746V15.356c0-.31.164-.593.43-.747L27.053 2.263V0H0v56h27.052v-2.264"/><path d="M28.775 0v2.763c0 .308-.164.593-.43.747L6.89 15.854v24.292L28.344 52.49c.267.154.43.44.43.747V56H56V0H28.775zm-2.703 43.077c-.36 0-.743-.3-.743-.663V38.74c-.862-.24-2.07-.542-2.912-.964l-2.63 2.59c-.242.24-.653.24-.894 0l-3.61-3.614c-.12-.12-.178-.302-.178-.482s.062-.3.182-.422l2.59-2.61c-.42-.844-.72-2.05-.962-2.912H13.24c-.337 0-.662-.344-.662-.675v-3.99c0-.33.325-.675.663-.675h3.676c.24-.862.542-2.07.964-2.912l-2.59-2.63c-.242-.24-.242-.653 0-.894l3.614-3.61c.24-.24.662-.24.903.002l2.61 2.592c.844-.422 2.05-.722 2.912-.963v-3.673c0-.362.38-.663.742-.663h3.856c.36 0 .743.3.743.663v3.674c.862.242 2.07.543 2.912.965l2.63-2.59c.242-.24.653-.24.894 0l3.61 3.614c.12.12.178.3.178.48 0 .182-.062.302-.182.423l-2.59 2.61c.42.843.72 2.05.962 2.912h3.675c.36 0 .662.38.662.743v3.855c0 .36-.302.743-.663.743h-3.676c-.24.862-.542 2.068-.964 2.912l2.59 2.63c.242.24.242.653 0 .894l-3.614 3.61c-.24.24-.662.238-.903-.003l-2.61-2.593c-.844.422-2.05.722-2.912.963v3.674c0 .362-.38.663-.742.663h-3.856zm24.586-2.504c0 .308-.164.592-.43.746l-16.98 9.793-2.05 1.18c-.126.066-.26.1-.395.1-.298 0-.588-.156-.747-.433-.238-.412-.097-.938.315-1.176l2.07-1.194 16.495-9.492V15.823L30.547 5.216c-.41-.238-.553-.765-.315-1.177.238-.413.764-.554 1.177-.316L50.227 14.58c.266.153.43.438.43.746v25.247z"/></g></svg>