<?xml version="1.0" standalone="no"?>
<!DOCTYPE svg PUBLIC "-//W3C//DTD SVG 1.1//EN" "http://www.w3.org/Graphics/SVG/1.1/DTD/svg11.dtd" >
<svg xmlns="http://www.w3.org/2000/svg" xmlns:xlink="http://www.w3.org/1999/xlink" version="1.1">
<metadata>
Created by FontForge 20150102 at Sun Jan 18 08:08:40 2015
 By uniteet7
Masterfont Studio Rosenberg 2001,  Version 6.0
</metadata>
<defs>
<font id="LagunaW26" horiz-adv-x="407" >
  <font-face 
    font-family="LagunaW26"
    font-weight="400"
    font-stretch="normal"
    units-per-em="1000"
    panose-1="0 0 0 0 0 0 0 0 0 0"
    ascent="800"
    descent="-200"
    x-height="376"
    cap-height="645"
    bbox="-39 -257 1096 800"
    underline-thickness="20"
    underline-position="-123"
    unicode-range="U+0020-FB4F"
  />
<missing-glyph horiz-adv-x="500" 
d="M63 0v800h375v-800h-375zM125 63h250v675h-250v-675z" />
    <glyph glyph-name=".notdef" horiz-adv-x="500" 
d="M63 0v800h375v-800h-375zM125 63h250v675h-250v-675z" />
    <glyph glyph-name="glyph1" horiz-adv-x="0" 
 />
    <glyph glyph-name="glyph2" horiz-adv-x="380" 
 />
    <glyph glyph-name="space" unicode=" " horiz-adv-x="380" 
 />
    <glyph glyph-name="exclam" unicode="!" horiz-adv-x="203" 
d="M269 525q-68 -129 -113 -278l-26 -84q-27 -19 -41 -31l68 256q31 116 112 137zM107 45q0 -18 -14 -31.5t-32 -13.5q-23 0 -23 22q0 18 13.5 31t31.5 13q24 0 24 -21z" />
    <glyph glyph-name="quotedbl" unicode="&#x22;" horiz-adv-x="273" 
d="M332 565q-20 -47 -64 -138q-5 -8 -25.5 -20.5t-32.5 -16.5q42 56 76 154zM248 562q-58 -96 -69 -136q-4 -14 -56 -40q13 26 76 154z" />
    <glyph glyph-name="numbersign" unicode="#" horiz-adv-x="364" 
d="M391 284h-74l-14 -78h41l9 -28h-54l-14 -112l-30 12l14 100h-84l-16 -112l-28 12l12 100h-68l-9 28h81l14 78h-48l-9 28h62l9 74l31 -12l-9 -62h83l10 74l32 -12l-10 -62h60zM288 284h-85l-14 -78h83z" />
    <glyph glyph-name="dollar" unicode="$" horiz-adv-x="533" 
d="M551 484q0 -18 -32 -67q-12 -19 -17 -19v8q1 4 5 15q10 23 -17 41q-22 15 -46 16l-70 -173q35 -31 54 -49q37 -35 37 -87q0 -94 -109 -145q-52 -24 -111 -32l-4 -10q-6 -15 -16 -35q-3 -6 -11 -6q-10 0 -5 11l12 27l5 12q-7 -1 -22 -1q-58 0 -99 19q-53 26 -53 77
q0 44 37 89q46 56 69 56v-5q-17 -13 -52 -59q-13 -23 -13 -45q0 -38 30 -64q16 -13 57 -26q25 -7 58 -11l94 227q-77 49 -77 106q0 64 73 119q45 34 97 34h13l3 7l11 27q4 10 12 10q4 0 5 -3q1 -2 -1 -9q-4 -17 -9 -25l-3 -7h47q48 -1 48 -23zM426 478q-58 -3 -88 -30
q-34 -31 -34 -57q0 -29 53 -72l3 -2zM405 130q0 67 -59 108l-89 -218h7q141 0 141 110z" />
    <glyph glyph-name="percent" unicode="%" horiz-adv-x="538" 
d="M618 516q-12 -12 -125 -116q-157 -144 -265 -272q-49 -58 -102 -128h-41q105 129 217 244q78 80 202 191q22 20 58 53q-62 -12 -121 -12q-38 0 -94 4q3 -16 3.5 -20.5t0.5 -21.5q0 -84 -72 -156q-49 -39 -119 -39q-34 0 -34 46q0 35 23 95.5t48 79.5q53 42 113 42
q24 0 29.5 -8t100.5 -8q17 0 143 18q32 5 35 8zM502 205q0 -39 -18 -86.5t-45 -73.5q-51 -50 -129 -50q-34 0 -34 46q0 37 21 92q22 60 47 81q20 17 53.5 28.5t60.5 11.5q22 0 33 -6.5t11 -42.5zM301 454q0 26 -11 32q-4 2 -15 1q-44 -5 -71 -83q-20 -57 -20 -101
q0 -36 20 -36q4 0 33 12q20 9 43 80q21 64 21 95zM451 208q0 39 -29 31q-13 -3 -18 -6q-30 -23 -52 -81q-19 -53 -19 -96q0 -37 21 -37q8 0 33 12q21 10 43 81q21 65 21 96z" />
    <glyph glyph-name="ampersand" unicode="&#x26;" horiz-adv-x="523" 
d="M538 366l-98 -366h-285l63 234h47l-51 -188h192l86 320h46zM416 366l-62 -230h-45l50 184h-192l-86 -320h-47l98 366h284z" />
    <glyph glyph-name="quotesingle" unicode="'" horiz-adv-x="208" 
d="M280 581q-12 -15 -44 -72q-29 -51 -42 -64q-8 -11 -57 -27q42 45 94 147z" />
    <glyph glyph-name="parenleft" unicode="(" horiz-adv-x="278" 
d="M384 528q-9 -47 -83 -96q-84 -56 -103 -88q-72 -121 -72 -228q0 -88 46 -124q21 -17 21 -26q0 -6 -7 -6q-19 0 -43 24q-20 20 -31 41q-22 42 -22 95q0 118 85 242q84 121 194 170q6 2 10 2q5 0 5 -6z" />
    <glyph glyph-name="parenright" unicode=")" horiz-adv-x="288" 
d="M278 376q0 -135 -83 -251.5t-210 -158.5q-8 -2 -12 -1q-5 2 -5 4q0 -4 87 63q92 72 119 122q65 121 65 239q0 88 -32 114q-15 12 -15 21q0 4 5 7q6 3 12 -1q69 -39 69 -158z" />
    <glyph glyph-name="asterisk" unicode="*" horiz-adv-x="288" 
d="M338 500q-60 -22 -89 -43q19 -13 52 -27l-11 -32q-37 26 -55 44q-17 -57 -14 -69q-7 -7 -33 -16q4 25 12 46q6 13 17 38q-3 3 -34 -15l-34 -20l-22 13q82 29 82 38q-19 23 -45 32q-4 2 -1 16q3 16 7 14q22 -11 56 -45q16 40 16 67q0 4 32 20q-2 -13 -12.5 -46.5
t-17.5 -42.5q12 7 39 21q12 6 29 15q9 -3 26 -8z" />
    <glyph glyph-name="plus" unicode="+" horiz-adv-x="318" 
d="M305 268l-8 -38h-84l-21 -81l-45 -10l23 91h-83l12 38h81l20 83l45 13l-23 -96h83z" />
    <glyph glyph-name="comma" unicode="," horiz-adv-x="178" 
d="M120 56q-16 -22 -51 -78l-37 -60q-4 -5 -56 -25q37 43 94 147z" />
    <glyph glyph-name="hyphen" unicode="-" horiz-adv-x="268" 
d="M250 265l-8 -32h-146l8 32h146z" />
    <glyph glyph-name="hyphen" unicode="&#x2010;" horiz-adv-x="268" 
d="M250 265l-8 -32h-146l8 32h146z" />
    <glyph glyph-name="period" unicode="." horiz-adv-x="168" 
d="M106 44q0 -18 -13.5 -31t-31.5 -13q-23 0 -23 22q0 17 13.5 30.5t30.5 13.5q24 0 24 -22z" />
    <glyph glyph-name="slash" unicode="/" horiz-adv-x="393" 
d="M464 516q-130 -127 -228 -268l-64 -92q-66 -96 -113 -184l-59 -24q88 160 198 304q118 154 224 256q7 10 35 13q4 -4 7 -5z" />
    <glyph glyph-name="zero" unicode="0" 
d="M449 371q0 -52 -17 -113q-27 -98 -87 -170q-73 -88 -162 -88q-110 0 -110 134q0 122 70 240q81 136 196 136q110 0 110 -139zM402 411q0 79 -69 79q-62 0 -110 -65q-36 -48 -57 -121q-41 -142 -41 -193q0 -91 73 -91t119 86q23 42 54 151.5t31 153.5z" />
    <glyph glyph-name="one" unicode="1" 
d="M374 510l-119 -446q-12 -46 -28 -68q-19 -27 -58 -41l123 459l-124 -19z" />
    <glyph glyph-name="two" unicode="2" 
d="M407 414q11 -45 -109 -181l-162 -184h127q46 0 65 17q16 14 23 14t4 -7q-2 -9 -13 -20q-7 -11 -21 -31q-19 -22 -50 -22h-189q-4 15 19 42l188 216q17 20 37 63q16 35 16 61q0 27 -35 71q-15 19 -50 19q-18 0 -38.5 -14t-26.5 -30.5t-12 -16.5q-5 0 -5 10q0 37 54 67
q39 22 78 22q47 0 70 -25q18 -21 30 -71z" />
    <glyph glyph-name="three" unicode="3" 
d="M414 392q0 -65 -73 -123l-97 -77q28 -37 77 -87q24 -25 24 -56q0 -43 -64 -81q-74 -45 -130 -55q-21 -4 -27 -4h-6q-17 0 -26 8t-9 21q0 23 16 20q19 -4 47 -4q51 0 88 13q54 18 54 59q0 19 -57 95l-55 73q6 10 89 70t83 113q0 27 -18 68q-15 35 -80 35q-24 0 -64 -22
q-26 -14 -30 -14q-3 3 -3 6q11 26 68 48q32 12 65 12q103 0 126 -96q2 -18 2 -22z" />
    <glyph glyph-name="four" unicode="4" 
d="M424 510l-95 -391h24q21 0 29 -5t8 -24h-66l-18 -72q-9 -36 -26 -53t-53 -28l37 153h-183q31 136 108 239q52 69 191 168zM353 446q-101 -62 -157 -138q-40 -54 -80 -189h154z" />
    <glyph glyph-name="five" unicode="5" 
d="M435 510q-22 -25 -35 -32q-17 -10 -47 -10h-133l-37 -147q150 -93 182 -154q22 -42 22 -78q0 -52 -57 -118q-46 -54 -117 -54q-84 0 -111 51q-11 21 -11 45q0 29 10 42q4 -2 7 -3q3 -43 30 -68t70 -25q49 0 85.5 33t36.5 81q0 54 -61 113q-30 29 -59 51l-60 45
q53 224 60 228h225z" />
    <glyph glyph-name="six" unicode="6" 
d="M484 496q0 -12 -6.5 -21t-17.5 -9q1 0 -22.5 8t-44.5 8q-74 0 -113.5 -28t-68.5 -99q-9 -31 -27 -91q46 46 118 46q98 0 98 -105q0 -61 -28 -118q-33 -66 -84 -79.5t-85 -13.5q-85 0 -105 61q-8 24 -8 53q0 61 27.5 148t62.5 139q29 44 85 76q52 29 109 38q50 8 91 8
q19 0 19 -21zM338 205q0 49 -30 68q-16 10 -37 10q-58 0 -95 -45q-25 -90 -25 -136q0 -32 6 -49q13 -39 61 -39q70 0 103 99q17 51 17 92z" />
    <glyph glyph-name="seven" unicode="7" 
d="M432 510q-52 -117 -137 -287q-26 -51 -51 -102q-31 -65 -40 -106q-7 -33 -40 -54q-20 -12 -65 -27q0 6 6 18q13 38 139 261q34 59 68 119q39 70 61 122h-144q-13 0 -20 -5q-2 -3 -11 -27q-7 -19 -14 -19q-8 0 -6 13q8 56 8 82q2 12 57 12h189z" />
    <glyph glyph-name="eight" unicode="8" 
d="M445 416q0 -78 -142 -142q31 -25 40 -35q18 -17 34 -42q19 -30 19 -61q0 -74 -94 -121q-44 -22 -96 -22q-86 0 -125 55q-17 25 -17 53q0 101 123 150q12 5 35 13q-32 26 -57 63q-18 27 -18 58q0 72 66 109q53 30 110 30q78 0 106 -51q16 -30 16 -57zM393 410q0 21 -7 44
q-16 55 -74 55q-67 0 -94 -73q-6 -16 -6 -35q0 -51 51 -91l23 -18q11 4 51 25q56 30 56 93zM328 118q0 59 -66 114l-23 19q-21 -8 -50 -29q-66 -48 -66 -120q0 -55 37 -78q24 -15 53 -15q62 0 93 45q22 32 22 64z" />
    <glyph glyph-name="nine" unicode="9" 
d="M456 414q0 -98 -60 -240q-61 -145 -114 -179q-88 -57 -138 -57q-52 0 -76 28q-15 17 -15 31q0 11 7 11l24 -10t30 -11q18 -7 46 -7q46 0 81 22q42 26 83 151q4 16 13 48q-16 -24 -57.5 -41.5t-73.5 -17.5q-41 0 -74 32q-22 21 -22 89q0 74 36.5 137.5t101.5 94.5
q46 22 93 22q73 0 105 -52q10 -16 10 -51zM394 425q0 71 -64 71q-57 0 -97 -58q-22 -32 -37 -95q-14 -58 -14 -102q0 -76 49 -76q29 0 65 24.5t51 43.5q18 24 33 92q14 62 14 100z" />
    <glyph glyph-name="colon" unicode=":" horiz-adv-x="200" 
d="M191 345q0 -17 -14.5 -31t-31.5 -14q-23 0 -23 22q0 17 14 31t31 14q24 0 24 -22zM117 44q0 -18 -13.5 -31t-31.5 -13q-23 0 -23 22q0 16 14 30t30 14q24 0 24 -22z" />
    <glyph glyph-name="semicolon" unicode=";" horiz-adv-x="208" 
d="M185 345q0 -17 -14.5 -31t-31.5 -14q-23 0 -23 22q0 17 14 31t31 14q24 0 24 -22zM133 56q-15 -20 -79 -121q-16 -25 -66 -42q41 43 94 147z" />
    <glyph glyph-name="less" unicode="&#x3c;" horiz-adv-x="273" 
d="M302 372q0 -5 -19 -15q-108 -58 -121 -89q-5 -12 -5 -25q0 -21 12 -50.5t25.5 -45.5t13.5 -23q0 -9 -7 -9q-6 0 -10 7q-94 105 -85 127q2 17 156 113q24 15 34 15q6 0 6 -5z" />
    <glyph glyph-name="equal" unicode="=" horiz-adv-x="283" 
d="M271 310l-9 -37h-148l9 37h148zM249 225l-8 -36h-148l8 36h148z" />
    <glyph glyph-name="greater" unicode="&#x3e;" horiz-adv-x="268" 
d="M252 244q-4 -10 -80 -66q-79 -59 -87 -70q-7 -5 -12 -5q-6 0 -5 5q2 6 9 12.5t63 48.5q49 35 53 47.5t4 20.5q0 25 -26 67t-26 45t1 5q3 6 8 6l55 -57q45 -46 43 -59z" />
    <glyph glyph-name="question" unicode="?" horiz-adv-x="348" 
d="M378 422q0 -55 -86 -116l-80 -58q-36 -26 -45 -91h-21q3 11 8.5 32t7.5 31q16 34 80 83q31 24 36 29q15 13 26.5 37.5t11.5 41.5q0 63 -67 63q-16 0 -33 -9.5t-33 -18.5t-26 -9q-7 0 -6 7q9 23 75 50q32 13 66 13q86 0 86 -85zM155 45q0 -18 -14 -31.5t-32 -13.5
q-23 0 -23 22q0 18 13.5 31t31.5 13q24 0 24 -21z" />
    <glyph glyph-name="at" unicode="@" horiz-adv-x="759" 
d="M699 350q0 -92 -52 -149q-55 -61 -152 -61q-90 0 -105 55q-58 -49 -108 -49q-40 0 -65 26q-30 30 -30 90q0 87 47 157q53 77 132 77q56 0 84 -34l6 22h77l-63 -255q-2 -8 -2 -13q0 -38 49 -38q50 0 91 38q53 49 53 135q0 97 -74 166q-79 73 -204 73q-129 0 -215.5 -78.5
t-86.5 -196.5q0 -115 86 -192.5t215 -77.5q104 0 186 54q8 4 13 4q17 0 17 -16q0 -10 -9 -17q-79 -60 -207 -60q-146 0 -242.5 86t-96.5 219q0 137 95.5 223.5t244.5 86.5q141 0 230 -82q86 -79 86 -193zM440 426q-15 36 -63 36q-43 0 -77.5 -69.5t-34.5 -142.5
q0 -66 38 -66q20 0 45 13.5t40 36.5z" />
    <glyph glyph-name="A" unicode="A" horiz-adv-x="681" 
d="M669 0h-311v24h104l-63 174h-201l-62 -174h120v-24h-238v24h90l226 630h18l226 -630h91v-24zM390 222l-92 253l-91 -253h183z" />
    <glyph glyph-name="B" unicode="B" horiz-adv-x="616" 
d="M568 176q0 -82 -61.5 -129t-168.5 -47h-313v24h89v597h-89v24h305q87 0 149 -39q66 -43 66 -113q0 -110 -139 -143q64 -14 108 -54q54 -50 54 -120zM437 485v16q0 120 -107 120h-107v-261h107q107 0 107 125zM457 164v23q0 149 -127 149h-107v-312h107q69 0 98 35t29 105
z" />
    <glyph glyph-name="C" unicode="C" horiz-adv-x="631" 
d="M598 4q0 -11 -11 -11q-6 0 -12 6l-52 52q-70 -69 -172 -69q-120 0 -216 99q-100 103 -100 242q0 128 91 228q96 105 230 105q94 0 162 -49l37 35q9 9 17 9q12 0 12 -19v-154q0 -16 -9 -16q-7 0 -10 8l-2 5q-25 70 -76 111q-56 44 -131 44q-185 0 -185 -256v-106
q0 -260 180 -260q139 0 223 180q6 13 14 13q10 0 10 -14v-183z" />
    <glyph glyph-name="D" unicode="D" horiz-adv-x="682" 
d="M664 330q0 -150 -90 -240t-237 -90h-309v24h91v597h-91v24h309q144 0 235.5 -87.5t91.5 -227.5zM541 306v48q0 141 -62 209q-53 58 -144 58h-107v-597h107q206 0 206 282z" />
    <glyph glyph-name="E" unicode="E" horiz-adv-x="591" 
d="M553 35q0 -35 -34 -35h-488v24h87v597h-89v24h465q31 0 31 -27v-144q0 -17 -12 -17t-13 18q-2 53 -28 94q-33 52 -93 52h-152v-269h77q39 0 55 24q7 13 18 59q3 17 12 17q11 0 11 -16v-192q0 -17 -11 -17q-9 0 -12 17q-5 23 -20 62q-15 22 -53 22h-77v-304h161
q65 0 96 42q23 32 41 115q5 23 16 23q12 0 12 -27v-142z" />
    <glyph glyph-name="F" unicode="F" horiz-adv-x="564" 
d="M529 474q0 -17 -12 -17t-13 18q-2 53 -28 94q-33 52 -93 52h-152v-269h77q39 0 55 24q8 13 18 59q4 17 12 17q11 0 11 -16v-192q0 -17 -11 -17q-8 0 -12 17q-5 23 -20 62q-15 22 -53 22h-77v-304h89v-24h-284v24h86v597h-88v24h465q30 0 30 -27v-144z" />
    <glyph glyph-name="G" unicode="G" horiz-adv-x="689" 
d="M686 217h-89v-28q0 -104 -74 -158q-65 -49 -173 -49q-126 0 -221.5 100.5t-95.5 236.5q0 137 94.5 237t225.5 100q99 0 164 -52l41 38q10 9 18 9q13 0 13 -15v-179q0 -13 -11 -13q-10 0 -14 12q-60 174 -211 174q-85 0 -133 -59q-52 -64 -52 -192v-116q0 -125 48.5 -190
t135.5 -65q130 0 130 124v85h-111v24h315v-24z" />
    <glyph glyph-name="H" unicode="H" horiz-adv-x="706" 
d="M688 0h-286v24h89v306h-264v-306h89v-24h-287v24h89v597h-89v24h287v-24h-89v-266h264v266h-89v24h286v-24h-88v-597h88v-24z" />
    <glyph glyph-name="I" unicode="I" horiz-adv-x="366" 
d="M326 0h-286v24h88v597h-88v24h286v-24h-89v-597h89v-24z" />
    <glyph glyph-name="J" unicode="J" horiz-adv-x="381" 
d="M371 621h-77v-565q0 -153 -168 -153q-53 0 -87 31q-31 26 -31 58q0 54 51 54q22 0 35 -13.5t13 -33.5q0 -46 -43 -52q21 -18 55 -18q37 0 51.5 20.5t14.5 70.5v601h-95v24h281v-24z" />
    <glyph glyph-name="K" unicode="K" horiz-adv-x="692" 
d="M685 0h-300v24h85l-251 329l291 268h-82v24h212v-24h-90l-237 -218l288 -379h84v-24zM304 0h-273v24h82v597h-82v24h273v-24h-82v-597h82v-24z" />
    <glyph glyph-name="L" unicode="L" horiz-adv-x="617" 
d="M596 35q0 -35 -35 -35h-535v24h89v597h-89v24h296v-24h-98v-597h207q64 0 95 42q23 32 41 115q5 23 16 23q13 0 13 -27v-142z" />
    <glyph glyph-name="M" unicode="M" horiz-adv-x="821" 
d="M793 0h-273v24h82v565l-222 -589h-20l-222 585v-561h83v-24h-190v24h82v597h-82v24h198l186 -478l180 478h198v-24h-82v-597h82v-24z" />
    <glyph glyph-name="N" unicode="N" horiz-adv-x="677" 
d="M660 621h-89v-629h-42l-392 591v-559h89v-24h-203v24h89v597h-89v24h210l313 -470v446h-89v24h203v-24z" />
    <glyph glyph-name="O" unicode="O" horiz-adv-x="712" 
d="M684 320q0 -133 -96 -235.5t-228 -102.5q-131 0 -227 102.5t-96 235.5q0 132 96 234t227 102q132 0 228 -102t96 -234zM549 272v95q0 145 -49 207q-45 56 -140 56q-93 0 -139 -59q-49 -63 -49 -204v-95q0 -264 188 -264q189 0 189 264z" />
    <glyph glyph-name="P" unicode="P" horiz-adv-x="558" 
d="M534 469q0 -79 -58 -127.5t-151 -48.5h-102v-269h88v-24h-286v24h89v597h-89v24h290q100 0 159.5 -48t59.5 -128zM433 452v34q0 135 -118 135h-92v-304h102q108 0 108 135z" />
    <glyph glyph-name="Q" unicode="Q" horiz-adv-x="701" 
d="M684 319q0 -114 -73 -209t-182 -122v-17q0 -168 160 -168q14 0 14 -11q0 -10 -14 -10q-143 0 -203 30q-82 40 -92 155l-2 21q-109 26 -182 121t-73 210q0 133 96 235t227 102q132 0 228 -102t96 -235zM549 271v95q0 145 -49 208q-45 56 -140 56q-93 0 -139 -59
q-49 -63 -49 -205v-95q0 -265 188 -265q189 0 189 265z" />
    <glyph glyph-name="R" unicode="R" horiz-adv-x="647" 
d="M645 34q0 -5 -4 -9q-12 -11 -44 -21q-36 -12 -69 -12q-51 0 -76 28q-22 24 -28 77q-2 33 -7 99q-15 129 -110 129h-81v-301h89v-24h-287v24h89v597h-89v24h295q95 0 155 -42q65 -44 65 -119q0 -119 -150 -152q96 -24 126 -81q20 -38 23 -142q1 -49 6 -62q8 -21 37 -21
q24 0 44 13q6 2 9 2q7 0 7 -7zM436 467v34q0 120 -113 120h-97v-272h97q113 0 113 118z" />
    <glyph glyph-name="S" unicode="S" horiz-adv-x="558" 
d="M524 205q0 -95 -68.5 -159t-168.5 -64q-92 0 -169 62l-34 -45q-9 -12 -17 -12q-14 0 -14 17v170q0 17 12 17q11 0 16 -15q21 -78 79.5 -123t132.5 -45q66 0 115.5 40t49.5 104q0 68 -57 93q-45 19 -90 32l-102 30q-141 44 -141 160q0 78 59.5 133.5t158.5 55.5
q77 0 148 -38l27 32q8 10 15 10q11 0 11 -14v-169q0 -14 -12 -14t-14 13q-9 66 -50 107q-47 47 -125 47q-60 0 -101 -28q-46 -31 -46 -84q0 -64 62 -86q27 -10 184 -52q139 -37 139 -175z" />
    <glyph glyph-name="T" unicode="T" horiz-adv-x="638" 
d="M617 455h-31q-11 78 -45.5 122t-80.5 44h-84v-597h89v-24h-286v24h88v597h-84q-45 0 -79.5 -44t-46.5 -122h-30l16 170q2 20 25 20h508q23 0 25 -20z" />
    <glyph glyph-name="U" unicode="U" horiz-adv-x="657" 
d="M643 621h-88v-459q0 -88 -56 -134t-156 -46q-95 0 -158 38q-78 48 -78 142v459h-89v24h286v-24h-88v-459q0 -74 40 -114t111 -40q70 0 116 41.5t46 112.5v459h-89v24h203v-24z" />
    <glyph glyph-name="V" unicode="V" horiz-adv-x="651" 
d="M649 621h-75l-221 -631h-24l-232 631h-90v24h287v-24h-91l175 -472l165 472h-87v24h193v-24z" />
    <glyph glyph-name="W" unicode="W" horiz-adv-x="926" 
d="M915 621h-72l-241 -631h-20l-112 287l-109 -287h-20l-240 631h-78v24h657v-24h-64l-84 -219l98 -261l184 480h-86v24h187v-24zM588 621h-140l70 -182zM456 315l-115 306h-133l182 -478z" />
    <glyph glyph-name="X" unicode="X" horiz-adv-x="706" 
d="M689 0h-285v24h80l-160 259l-176 -259h99v-24h-225v24h92l194 285l-193 312h-91v24h305v-24h-90l136 -220l148 220h-96v24h225v-24h-94l-166 -246l216 -351h81v-24z" />
    <glyph glyph-name="Y" unicode="Y" horiz-adv-x="682" 
d="M673 621h-85l-168 -281v-316h98v-24h-306v24h99v292l-198 305h-85v24h297v-24h-91l164 -254l152 254h-96v24h219v-24z" />
    <glyph glyph-name="Z" unicode="Z" horiz-adv-x="524" 
d="M502 0h-471v30l352 591h-191q-128 0 -133 -149h-23v173h459v-28l-356 -593h189q70 0 105 38q39 42 44 137h25v-199z" />
    <glyph glyph-name="bracketleft" unicode="[" horiz-adv-x="243" 
d="M336 628l-2 -17h-89l-178 -665h104l-4 -15h-156l186 697h139z" />
    <glyph glyph-name="backslash" unicode="\" horiz-adv-x="276" 
d="M264 0h-71l-193 583h78z" />
    <glyph glyph-name="bracketright" unicode="]" horiz-adv-x="243" 
d="M336 628l-185 -697h-152l3 15h104l178 665h-79l3 17h128z" />
    <glyph glyph-name="asciicircum" unicode="^" horiz-adv-x="381" 
d="M325 325l-22 -11l-108 207l-108 -207l-23 11l114 281h33z" />
    <glyph glyph-name="underscore" unicode="_" horiz-adv-x="300" 
d="M311 -31h-316v20h316v-20z" />
    <glyph glyph-name="grave" unicode="`" horiz-adv-x="266" 
d="M233 457l-14 -7l-175 154h103z" />
    <glyph glyph-name="a" unicode="a" horiz-adv-x="456" 
d="M453 54q0 -20 -23 -41q-28 -26 -77 -26q-66 0 -79 47q-44 -47 -116 -47q-116 0 -116 88q0 63 66 101q63 35 160 36v107q0 50 -64 50q-61 0 -61 -17q4 -3 9 -8q14 -12 14 -30q0 -37 -43 -37q-42 0 -42 39q0 30 35 51q40 23 112 23q138 0 138 -89v-227q0 -31 4 -41
q5 -13 20 -13q26 0 44 33q5 10 11 10q8 0 8 -9zM268 68v126q-65 -4 -95 -21q-41 -22 -41 -74q0 -79 61 -79q19 0 47 17t28 31z" />
    <glyph glyph-name="b" unicode="b" horiz-adv-x="534" 
d="M510 192q0 -76 -58.5 -140t-136.5 -64q-65 0 -111 52v-40h-176v24h79v597h-79v24h176v-299q43 47 108 47q71 0 132 -57q66 -61 66 -144zM394 171v43q0 95 -25 129q-18 26 -61 26q-62 0 -104 -66v-220q43 -71 108 -71q82 0 82 159z" />
    <glyph glyph-name="c" unicode="c" horiz-adv-x="422" 
d="M411 105q0 -2 -1 -5l-1 -4q-13 -41 -49 -70q-48 -39 -118 -39q-83 0 -145 54q-68 58 -68 146t69 147q64 56 149 56q49 0 92 -21q49 -24 49 -61q0 -19 -14 -31.5t-36 -12.5q-20 0 -34.5 11.5t-14.5 30.5q0 18 9 30.5l9 12.5q0 5 -14 10q-18 7 -48 7q-52 0 -75 -33
q-24 -36 -24 -125v-41q0 -90 19 -122q21 -35 80 -35q53 0 93 30q34 26 47 65q4 12 14 12q12 0 12 -12z" />
    <glyph glyph-name="d" unicode="d" horiz-adv-x="534" 
d="M513 0h-176v41q-45 -54 -110 -54q-68 0 -130 61q-65 64 -65 143q0 75 61 138.5t137 63.5q68 0 107 -43v271h-78v24h176v-621h78v-24zM337 82v219q-41 68 -103 68q-47 0 -66.5 -34t-19.5 -120v-47q0 -89 21 -125q19 -32 62 -32q60 0 106 71z" />
    <glyph glyph-name="e" unicode="e" horiz-adv-x="447" 
d="M414 117q0 -6 -3 -15q-20 -50 -64 -81q-49 -34 -117 -34q-87 0 -146 62q-56 59 -56 136q0 78 58 141.5t140 63.5q88 0 141 -63q39 -46 42 -94q1 -17 -21 -17h-243v-92q0 -114 87 -114q110 0 158 106q6 12 14 12q10 0 10 -11zM303 279q0 87 -76 87q-82 0 -82 -93v-33h148
q10 0 10 39z" />
    <glyph glyph-name="f" unicode="f" horiz-adv-x="352" 
d="M340 585q0 -38 -37 -38q-40 0 -40 36q0 24 23 34q0 11 -42 11q-49 0 -49 -67v-181h83v-24h-83v-332h77v-24h-252v24h77v332h-76v24h76v36q0 108 21 153q39 83 124 83q42 0 70 -20.5t28 -46.5z" />
    <glyph glyph-name="g" unicode="g" horiz-adv-x="439" 
d="M433 371q0 -32 -35 -32q-38 0 -38 31q0 4 1 7q-14 -9 -30 -25q46 -41 46 -97q0 -47 -37 -86q-48 -50 -133 -50q-34 0 -59 7q-80 -20 -80 -60q0 -36 61 -36h166q59 0 93 -29q36 -32 36 -91q0 -76 -60 -121q-56 -42 -144 -42q-86 0 -136 26q-53 29 -53 83q0 69 78 101
q-76 19 -76 92q0 65 81 90q-77 41 -77 116q0 55 44 93q47 42 126 42q69 0 105 -24q39 39 78 39q43 0 43 -34zM275 238v32q0 55 -17 77q-15 19 -51 19t-51 -19q-17 -22 -17 -77v-32q0 -51 14.5 -73t53.5 -22t53.5 22t14.5 73zM377 -129q0 34 -26.5 58t-72.5 24h-131
q-17 0 -36 -22q-22 -25 -22 -57q0 -103 135 -103q59 0 102 24q51 27 51 76z" />
    <glyph glyph-name="h" unicode="h" horiz-adv-x="555" 
d="M539 0h-241v24h71v267q0 69 -57 69q-47 0 -83 -38q-33 -34 -33 -66v-232h72v-24h-242v24h73v597h-73v24h170v-320q48 68 148 68q123 0 123 -91v-278h72v-24z" />
    <glyph glyph-name="i" unicode="i" horiz-adv-x="303" 
d="M216 550q0 -22 -17 -37.5t-41 -15.5q-25 0 -41.5 15.5t-16.5 37.5q0 23 16.5 38.5t41.5 15.5q24 0 41 -15.5t17 -38.5zM285 0h-252v24h77v332h-77v24h174v-356h78v-24z" />
    <glyph glyph-name="j" unicode="j" horiz-adv-x="282" 
d="M228 550q0 -23 -17 -38.5t-41 -15.5t-41 15.5t-17 38.5t17 38.5t41 15.5t41 -15.5t17 -38.5zM225 -28q0 -105 -41.5 -164.5t-113.5 -59.5q-37 0 -64 18.5t-27 46.5q0 20 13.5 34.5t35.5 14.5t34.5 -14t12.5 -32q0 -28 -22 -42q6 -2 16 -2q23 0 40.5 15.5t17.5 48.5v519
h-83v24h181v-407z" />
    <glyph glyph-name="k" unicode="k" horiz-adv-x="556" 
d="M549 0h-258v24h68l-136 178h-16v-178h73v-24h-253v24h83v597h-83v24h180v-419h23l143 130h-81v24h202v-24h-84l-116 -107l181 -225h74v-24z" />
    <glyph glyph-name="l" unicode="l" horiz-adv-x="294" 
d="M273 0h-241v24h72v597h-72v24h169v-621h72v-24z" />
    <glyph glyph-name="m" unicode="m" horiz-adv-x="785" 
d="M766 0h-230v24h65v263q0 66 -48 66q-43 0 -76 -39q-31 -34 -31 -66v-224h67v-24h-231v24h67v263q0 30 -5 41q-10 25 -44 25q-39 0 -74 -38q-32 -34 -32 -59v-232h66v-24h-231v24h67v329h-67v24h165v-61q50 69 150 69q88 0 101 -71q48 71 151 71t103 -88v-273h67v-24z" />
    <glyph glyph-name="n" unicode="n" horiz-adv-x="547" 
d="M528 0h-242v24h72v263q0 66 -53 66q-37 0 -70 -34.5t-33 -66.5v-228h72v-24h-241v24h72v329h-72v23h169v-60q48 68 141 68q113 0 113 -91v-269h72v-24z" />
    <glyph glyph-name="o" unicode="o" horiz-adv-x="460" 
d="M441 188q0 -71 -56 -133q-62 -68 -151 -68t-152 68q-57 62 -57 133t57 133q63 69 152 69t151 -69q56 -62 56 -133zM325 168v41q0 85 -16 118q-20 39 -75 39q-56 0 -75 -39q-18 -33 -18 -118v-41q0 -88 18 -121q19 -37 75 -37t75 37q16 32 16 121z" />
    <glyph glyph-name="p" unicode="p" horiz-adv-x="515" 
d="M494 187q0 -82 -61 -143t-138 -61q-68 0 -108 46v-262h67v-24h-232v24h67v585h-67v25h165v-41q45 54 110 54q73 0 133 -60q64 -61 64 -143zM378 167v43q0 95 -27 130q-18 26 -55 26q-38 0 -73.5 -30t-35.5 -61v-184q0 -27 33 -54.5t73 -27.5q44 0 61 27q24 34 24 131z
" />
    <glyph glyph-name="q" unicode="q" horiz-adv-x="524" 
d="M507 -257h-231v24h67v263q-43 -47 -110 -47q-75 0 -137 63t-62 141t61.5 139t135.5 61q67 0 112 -52v41h164v-24h-67v-585h67v-24zM343 106v160q0 37 -36 68.5t-75 31.5q-82 0 -82 -121v-104q0 -79 23 -109q19 -24 62 -24q47 0 77.5 29t30.5 69z" />
    <glyph glyph-name="r" unicode="r" horiz-adv-x="412" 
d="M402 313q0 -24 -16.5 -38t-39.5 -14q-25 0 -41 13.5t-16 35.5q0 30 25 44q3 2 3 3q0 4 -24 4q-37 0 -71 -28t-34 -57v-252h72v-24h-242v24h72v329h-72v24h170v-45q43 53 116 53q40 0 66 -16q32 -19 32 -56z" />
    <glyph glyph-name="s" unicode="s" horiz-adv-x="367" 
d="M343 119q0 -58 -37 -94q-40 -38 -107 -38q-72 0 -116 37l-19 -25q-4 -7 -10 -7q-11 0 -11 12v101q0 12 11 12q9 0 12 -12q27 -95 130 -95q38 0 68 17q35 20 35 54q0 32 -33 50q-28 14 -124 34q-92 19 -92 101q0 51 37.5 87.5t103.5 36.5q46 0 78 -25l23 21q4 4 8 4
q7 0 7 -11v-101q0 -10 -8 -10t-11 9q-6 36 -30 60q-28 29 -73 29q-37 0 -61.5 -18t-24.5 -42q0 -29 35 -39q45 -10 112 -28q97 -29 97 -120z" />
    <glyph glyph-name="t" unicode="t" horiz-adv-x="348" 
d="M338 83q0 -4 -1 -10q-16 -86 -123 -86q-60 0 -92.5 31t-32.5 86v251h-70v24h70v106l98 45v-151h100v-24h-100v-253q0 -86 62 -86q54 0 65 65q2 14 14 14q10 0 10 -12z" />
    <glyph glyph-name="u" unicode="u" horiz-adv-x="556" 
d="M529 0h-170v60q-52 -71 -155 -71q-109 0 -109 106v258h-72v23h170v-287q0 -35 8 -47q11 -17 44 -17q42 0 78 34t36 64v230h-72v23h170v-352h72v-24z" />
    <glyph glyph-name="v" unicode="v" horiz-adv-x="505" 
d="M488 353h-63l-156 -357h-14l-165 357h-69v23h243v-23h-70l103 -230l100 230h-71v23h162v-23z" />
    <glyph glyph-name="w" unicode="w" horiz-adv-x="668" 
d="M654 353h-72l-125 -364h-14l-105 241l-87 -241h-15l-144 364h-69v23h234v-23h-66l87 -218l85 241h14l105 -242l74 219h-84v23h182v-23z" />
    <glyph glyph-name="x" unicode="x" horiz-adv-x="518" 
d="M505 0h-242v24h73l-97 128l-105 -128h71v-24h-174v24h71l121 149l-137 180h-60v23h227v-23h-63l89 -117l95 117h-61v23h163v-23h-68l-113 -138l146 -191h64v-24z" />
    <glyph glyph-name="y" unicode="y" horiz-adv-x="521" 
d="M511 352h-69l-211 -506q-40 -97 -120 -97q-57 0 -57 45q0 39 41 39q30 0 44 -27q6 -11 12 -11q32 0 56 59l59 143l-170 355h-70v24h251v-24h-76l112 -242l101 242h-74v24h171v-24z" />
    <glyph glyph-name="z" unicode="z" horiz-adv-x="414" 
d="M388 0h-339v26l226 327h-96q-80 0 -90 -98h-21v121h309v-28l-222 -324h112q92 0 100 108h21v-132z" />
    <glyph glyph-name="braceleft" unicode="{" horiz-adv-x="298" 
d="M400 623q0 -8 -23 -8q-6 0 -18.5 1t-18.5 1q-18 0 -34 -11q-31 -27 -40 -111q-12 -116 -15 -126q-12 -43 -119 -47q72 -13 81 -62q0 -5 1 -13.5t1 -13.5q0 -49 -39.5 -120.5t-39.5 -98.5q0 -24 12 -49q8 -17 33 -18l50 -3q26 -2 26 -10q0 -7 -29 -7q-97 0 -114 39
q-16 36 -16 68q0 29 34 103.5t34 111.5q0 4 -1 13t-1 13q-6 24 -64 46q85 22 102 68q1 4 25 125q18 92 43 102q42 16 82 16h23q25 0 25 -9z" />
    <glyph glyph-name="bar" unicode="|" horiz-adv-x="113" 
d="M232 717l-229 -864h-42l231 864h40z" />
    <glyph glyph-name="braceright" unicode="}" horiz-adv-x="338" 
d="M350 318q-68 -32 -110 -68q-25 -21 -30 -96q-3 -65 -6 -129q-5 -68 -28 -76q-50 -18 -103 -18h-29q-20 0 -20 7q0 6 17 6q59 0 87 10q35 12 35 74q0 21 -4 63t-4 63q0 73 35 103t119 58q-71 21 -83 55q-7 20 -7 39q0 33 32.5 90t32.5 72q0 37 -41 41q-29 3 -54 3
q-20 0 -20 9q0 8 18 8q52 0 59 -1q35 -3 52.5 -20.5t17.5 -49.5q0 -26 -22.5 -82.5t-22.5 -78.5q0 -4 2 -26q5 -26 77 -56z" />
    <glyph glyph-name="asciitilde" unicode="~" horiz-adv-x="438" 
d="M412 380q0 -27 -23 -47q-32 -26 -94 -26q-54 0 -110 20q-18 8 -35 15q-23 9 -37 9q-41 0 -45 -32q-1 -17 -17 -17t-16 21q0 28 28 51q34 26 91 26q46 0 110 -22q58 -20 76 -20q36 0 38 24q1 17 19 17q15 0 15 -19z" />
    <glyph glyph-name="uni00A0" unicode="&#xa0;" horiz-adv-x="380" 
 />
    <glyph glyph-name="exclamdown" unicode="&#xa1;" horiz-adv-x="277" 
d="M206 453q0 -23 -17.5 -39t-42.5 -16t-42.5 16t-17.5 39t17.5 39.5t42.5 16.5t42.5 -16.5t17.5 -39.5zM208 -48q0 -90 -63 -90q-65 0 -65 90q0 37 11 89q10 44 20 87q11 57 23 219h21q4 -71 22 -219q10 -43 20 -87q11 -52 11 -89z" />
    <glyph glyph-name="cent" unicode="&#xa2;" horiz-adv-x="354" 
d="M331 213q0 -3 -1 -7q-23 -80 -119 -88l-1 -48h-25v49q-62 5 -106 47.5t-44 104.5q0 61 40 101.5t110 51.5v37h25l1 -37q39 -1 70 -19.5t31 -43.5q0 -37 -38 -37q-16 0 -26.5 10t-10.5 25q0 14 5.5 19.5t5.5 10.5q0 14 -37 16v-265q36 2 63.5 23.5t34.5 51.5q2 9 11 9
q11 0 11 -11zM185 140v264q-35 -6 -47.5 -29.5t-12.5 -83.5v-41q0 -50 7 -70q13 -34 53 -40z" />
    <glyph glyph-name="sterling" unicode="&#xa3;" horiz-adv-x="559" 
d="M535 187q0 -60 -51 -126q-56 -72 -121 -72q-91 0 -146 59q-33 -53 -110 -53q-44 0 -68.5 25t-24.5 60q0 49 45 80q39 26 85 26q17 0 38 -4l-51 142h-96v26h85q-34 99 -34 141q0 90 83 133q66 34 171 34q62 0 108 -30q50 -33 50 -82q0 -81 -72 -81q-27 0 -45.5 13.5
t-18.5 38.5q0 56 68 56q15 0 15 7q0 18 -33.5 36t-71.5 18q-55 0 -81 -26q-31 -30 -31 -102v-156h81v-26h-81v-154q116 -67 177 -67q37 0 63 24q21 20 43 66q4 8 12 8q12 0 12 -14zM194 68q-57 64 -105 64q-17 0 -31 -12q-16 -15 -16 -40q0 -23 17.5 -41t47.5 -18
q64 0 87 47z" />
    <glyph glyph-name="currency" unicode="&#xa4;" horiz-adv-x="600" 
d="M499 118q0 -21 -21 -21q-8 0 -19 11l-56 56q-47 -35 -103 -35t-103 35l-56 -56q-11 -11 -19 -11q-21 0 -21 21q0 9 10 19l57 56q-36 48 -36 104t35 103l-56 56q-10 10 -10 19q0 21 21 21q8 0 19 -11l55 -56q45 36 104 36t103 -36l56 56q11 11 20 11q20 0 20 -21
q0 -9 -11 -19l-55 -56q35 -46 35 -103q0 -58 -36 -104l56 -56q11 -11 11 -19zM427 297q0 53 -37 90t-90 37t-90 -37t-37 -90t37 -90t90 -37t90 37t37 90z" />
    <glyph glyph-name="yen" unicode="&#xa5;" horiz-adv-x="674" 
d="M665 621h-86l-168 -281v-16h100v-24h-100v-39h100v-24h-100v-213h99v-24h-306v24h98v213h-101v24h101v39h-101v24h96l-192 297h-85v24h297v-24h-91l164 -254l152 254h-96v24h219v-24z" />
    <glyph glyph-name="brokenbar" unicode="&#xa6;" horiz-adv-x="118" 
d="M80 357h-37v290h37v-290zM80 0h-37v265h37v-265z" />
    <glyph glyph-name="section" unicode="&#xa7;" horiz-adv-x="387" 
d="M367 335q0 -90 -75 -121q72 -32 72 -121q0 -73 -47.5 -117.5t-126.5 -44.5q-61 0 -101.5 32t-40.5 74q0 48 43 48q39 0 39 -39q0 -37 -42 -37q-5 0 -5 -1q0 -10 29 -30q35 -23 78 -23q55 0 87 25t32 63q0 53 -71 76q-65 21 -131 42q-70 36 -70 118q0 93 82 122
q-83 28 -83 117q0 60 42 103q46 46 117 46q76 0 117 -29q33 -24 33 -57q0 -39 -38 -39q-43 0 -43 35q0 34 33 39q-37 27 -102 27q-42 0 -74 -21t-32 -53q0 -56 101 -70q177 -24 177 -164zM329 300q0 32 -61 60q-48 21 -105 30q-73 -15 -73 -67q0 -34 34 -55q39 -24 135 -43
q70 25 70 75z" />
    <glyph glyph-name="dieresis" unicode="&#xa8;" horiz-adv-x="432" 
d="M353 554q0 -19 -15.5 -32t-37.5 -13t-37.5 13t-15.5 32t15.5 32t37.5 13t37.5 -13t15.5 -32zM196 554q0 -19 -15.5 -32t-37.5 -13t-37.5 13t-15.5 32t15.5 32t37.5 13t37.5 -13t15.5 -32z" />
    <glyph glyph-name="copyright" unicode="&#xa9;" horiz-adv-x="637" 
d="M616 357q0 -110 -85 -188t-204 -78q-120 0 -205 78t-85 188t85 188t205 78q119 0 204 -78t85 -188zM586 358q0 98 -75.5 167t-182.5 69q-108 0 -183.5 -69t-75.5 -167t75.5 -167t183.5 -69q107 0 182.5 69t75.5 167zM428 241q0 -7 -8 -7q-3 0 -6 3l-21 20
q-29 -27 -69 -27q-49 0 -90.5 42t-41.5 98q0 53 39.5 96.5t95.5 43.5q36 0 65 -21l13 14q4 4 10 4h1h1q6 -1 6 -9v-64q0 -10 -8 -10q-5 0 -8 7q-21 60 -80 60q-73 0 -73 -100v-42q0 -101 70 -101q53 0 87 69q2 8 10 8q7 0 7 -8v-76z" />
    <glyph glyph-name="ordfeminine" unicode="&#xaa;" horiz-adv-x="354" 
d="M323 398q0 -13 -14 -26q-18 -16 -47 -16q-40 0 -49 27q-27 -27 -69 -27q-71 0 -71 55q0 38 39 60.5t97 22.5v61q0 27 -37 27q-32 0 -35 -5l2 -2q1 -1 3 -2q9 -10 9 -20q0 -24 -28 -24q-27 0 -27 26q0 18 22.5 31.5t67.5 13.5q85 0 85 -55v-135q0 -30 12 -30t21 12.5
t12 12.5q7 0 7 -7zM323 284h-279v38h279v-38zM209 480q-79 -6 -79 -55q0 -45 35 -45q12 0 28 10t16 18v72z" />
    <glyph glyph-name="guillemotleft" unicode="&#xab;" horiz-adv-x="438" 
d="M382 108h-28l-180 150l180 150h28l-128 -150zM232 108h-29l-179 150l179 150h29l-128 -150z" />
    <glyph glyph-name="logicalnot" unicode="&#xac;" horiz-adv-x="564" 
d="M545 230h-39v159h-488v40h527v-199z" />
    <glyph glyph-name="uni00AD" unicode="&#xad;" horiz-adv-x="277" 
d="M277 231h-273v31h273v-31z" />
    <glyph glyph-name="uni00AD" unicode="&#x2212;" horiz-adv-x="277" 
d="M277 231h-273v31h273v-31z" />
    <glyph glyph-name="registered" unicode="&#xae;" horiz-adv-x="448" 
d="M413 475q0 -73 -56.5 -124.5t-137.5 -51.5q-80 0 -137 51.5t-57 124.5q0 74 57 125.5t137 51.5q81 0 137.5 -51.5t56.5 -125.5zM383 475q0 61 -47.5 104t-115.5 43q-67 0 -115 -43t-48 -104t48 -104t115 -43q68 0 115.5 43t47.5 104zM331 388q0 -7 -2 -10
q-12 -10 -39 -10q-18 0 -25.5 8.5t-10.5 27.5l-2 30q-4 39 -34 39h-21v-85h28v-18h-98v18h29v174h-29v18h98q31 0 52 -14.5t21 -39.5q0 -35 -40 -48q25 -8 33 -28q5 -12 7 -43q1 -23 11 -23q7 0 13 4h9zM258 520v11q0 31 -33 31h-28v-71h28q33 0 33 29z" />
    <glyph glyph-name="macron" unicode="&#xaf;" horiz-adv-x="454" 
d="M360 516h-253v27h253v-27z" />
    <glyph glyph-name="macron" unicode="&#x2c9;" horiz-adv-x="454" 
d="M360 516h-253v27h253v-27z" />
    <glyph glyph-name="degree" unicode="&#xb0;" horiz-adv-x="231" 
d="M202 582q0 -30 -24 -51t-57 -21q-34 0 -58 21t-24 51q0 29 24 50.5t58 21.5q33 0 57 -21.5t24 -50.5zM177 582q0 20 -16.5 34.5t-39.5 14.5q-24 0 -40.5 -14.5t-16.5 -34.5q0 -21 16.5 -35t40.5 -14q23 0 39.5 14t16.5 35z" />
    <glyph glyph-name="plusminus" unicode="&#xb1;" horiz-adv-x="410" 
d="M374 344h-139v-127h-64v127h-139v59h139v127h64v-127h139v-59zM358 126h-310v59h310v-59z" />
    <glyph glyph-name="uni00B2" unicode="&#xb2;" horiz-adv-x="360" 
d="M304 462v-4l-5 -82h-214v28l115 98q43 37 43 88q0 57 -58 57q-22 0 -40.5 -8t-18.5 -17h1h7q12 0 21 -8.5t9 -18.5q0 -31 -36 -31t-36 34q0 31 31 49t75 18q40 0 67 -15q34 -18 34 -54q0 -43 -83 -108l-88 -69h117q28 0 37.5 28.5t14.5 28.5q7 0 7 -14z" />
    <glyph glyph-name="uni00B3" unicode="&#xb3;" horiz-adv-x="335" 
d="M277 466q0 -36 -31 -62t-77 -26q-35 0 -61 15q-31 17 -31 46q0 33 34 33t34 -33q0 -18 -25 -29h-1q0 -1 1 -3q16 -11 44 -11q60 0 60 70q0 63 -65 63h-17q-11 -1 -15 -1q-15 0 -15 10q0 11 15 11q4 0 15.5 -1t16.5 -1q60 0 60 60q0 51 -49 51q-43 0 -43 -10q-1 1 1 1
q22 -6 22 -28q0 -27 -33 -27q-31 0 -31 31q0 18 20 33q25 18 67 18q41 0 69 -17q32 -20 32 -56q0 -46 -58 -66q61 -19 61 -71z" />
    <glyph glyph-name="acute" unicode="&#xb4;" horiz-adv-x="404" 
d="M371 622l-175 -154l-13 9l85 145h103z" />
    <glyph glyph-name="mu" unicode="&#xb5;" horiz-adv-x="576" 
d="M534 100q-8 -114 -96 -114q-69 0 -78 93q-79 -93 -153 -93q-45 0 -76 42v-23q0 -38 16 -116q7 -30 7 -51t-13 -37.5t-33 -16.5q-43 0 -43 53q0 23 15 81q9 38 10 51q6 53 6 87v10v13v14v354h80v-260q0 -70 9 -97q14 -44 60 -44q58 0 115 66v335h81v-319q0 -50 4 -64
q7 -25 29 -25q30 0 40 61h20z" />
    <glyph glyph-name="mu" unicode="&#x3bc;" horiz-adv-x="576" 
d="M534 100q-8 -114 -96 -114q-69 0 -78 93q-79 -93 -153 -93q-45 0 -76 42v-23q0 -38 16 -116q7 -30 7 -51t-13 -37.5t-33 -16.5q-43 0 -43 53q0 23 15 81q9 38 10 51q6 53 6 87v10v13v14v354h80v-260q0 -70 9 -97q14 -44 60 -44q58 0 115 66v335h81v-319q0 -50 4 -64
q7 -25 29 -25q30 0 40 61h20z" />
    <glyph glyph-name="paragraph" unicode="&#xb6;" horiz-adv-x="664" 
d="M625 621h-89v-725h-65v725h-79v-725h-64v395h-65q-100 0 -162 43q-67 47 -67 134t67 134q62 43 162 43h362v-24z" />
    <glyph glyph-name="periodcentered" unicode="&#xb7;" horiz-adv-x="231" 
d="M172 309q0 -22 -17.5 -37t-42.5 -15t-42.5 15t-17.5 37t17.5 37t42.5 15t42.5 -15t17.5 -37z" />
    <glyph glyph-name="periodcentered" unicode="&#x2219;" horiz-adv-x="231" 
d="M172 309q0 -22 -17.5 -37t-42.5 -15t-42.5 15t-17.5 37t17.5 37t42.5 15t42.5 -15t17.5 -37z" />
    <glyph glyph-name="cedilla" unicode="&#xb8;" horiz-adv-x="359" 
d="M266 -101q0 -25 -20 -40t-52 -15q-42 0 -71 39q-5 7 -5 13q0 8 8 8q4 0 20 -12.5t33 -12.5q36 0 36 28q0 24 -35 37l14 56h34l-11 -45q49 -16 49 -56z" />
    <glyph glyph-name="uni00B9" unicode="&#xb9;" horiz-adv-x="288" 
d="M234 385h-149v18h46v247l-48 -5v17l97 11l8 -5v-265h46v-18z" />
    <glyph glyph-name="ordmasculine" unicode="&#xba;" horiz-adv-x="327" 
d="M293 477q0 -43 -34 -81q-38 -42 -92 -42t-93 42q-34 38 -34 81t34 80q39 41 93 41t92 -41q34 -37 34 -80zM304 284h-278v38h278v-38zM219 464v24q0 46 -5 61q-11 31 -47 31t-48 -30q-6 -18 -6 -62v-24q0 -45 6 -62q11 -30 48 -30q36 0 46 31q6 16 6 61z" />
    <glyph glyph-name="guillemotright" unicode="&#xbb;" horiz-adv-x="426" 
d="M422 258l-179 -150h-29l129 150l-129 150h29zM266 258l-179 -150h-29l129 150l-129 150h29z" />
    <glyph glyph-name="onequarter" unicode="&#xbc;" horiz-adv-x="387" 
d="M286 380h-149v18h46v251l-48 -4v17l97 11l7 -5v-270h47v-18zM363 331h-309v29h309v-29zM327 45h-19v40h-45v-67h41v-19h-134v19h40v67h-110v16q11 20 49 77q57 82 89 124h25v-198h45v43h19v-102zM210 104v130q-16 -21 -43 -59q-21 -31 -45 -71h88z" />
    <glyph glyph-name="onehalf" unicode="&#xbd;" horiz-adv-x="387" 
d="M286 380h-149v18h46v251l-48 -4v17l97 11l7 -5v-270h47v-18zM356 325h-310v30h310v-30zM320 87v-4l-6 -83h-213v28l114 100q43 37 43 90q0 56 -57 56q-22 0 -41 -8.5t-19 -15.5h2h6q13 0 22 -8.5t9 -19.5q0 -31 -37 -31q-35 0 -35 34q0 32 31 50.5t74 18.5q41 0 68 -15
q34 -19 34 -56q0 -43 -84 -109l-87 -70h117q28 0 37 29t14 29q8 0 8 -15z" />
    <glyph glyph-name="threequarters" unicode="&#xbe;" horiz-adv-x="387" 
d="M313 463q0 -37 -31 -63.5t-77 -26.5q-35 0 -61 15q-31 17 -31 47q0 33 34 33t34 -33q0 -18 -25 -29l-1 -1q0 -1 1 -3q17 -12 44 -12q60 0 60 72q0 65 -65 65q-5 0 -17 -1h-15q-15 0 -15 10q0 11 15 11q4 0 15.5 -1t16.5 -1q60 0 60 61q0 54 -49 54q-7 0 -23 -3
q-20 -4 -20 -8l12 -6q11 -8 11 -23q0 -27 -33 -27q-31 0 -31 31q0 18 20 33q25 19 67 19q41 0 69 -18q32 -20 32 -56q0 -47 -58 -67q61 -19 61 -72zM356 320h-310v29h310v-29zM327 45h-19v40h-45v-67h41v-19h-134v19h40v67h-110v16q11 20 49 77q57 82 89 124h25v-198h45v43
h19v-102zM210 104v130q-16 -21 -43 -59q-21 -30 -45 -71h88z" />
    <glyph glyph-name="questiondown" unicode="&#xbf;" horiz-adv-x="415" 
d="M292 448q0 -23 -17.5 -39t-42.5 -16t-42.5 16t-17.5 39q0 24 17.5 40t42.5 16t42.5 -16t17.5 -40zM369 -38q0 -39 -44 -67q-48 -29 -123 -29q-77 0 -120.5 35t-43.5 101q0 44 26 83q17 26 60 63q29 26 58 51q39 38 39 57q0 26 -1 34q-2 16 -2 20q0 11 13 11q10 0 12 -10
q13 -59 13 -99q0 -39 -10 -60q-16 -34 -49 -67q-54 -52 -59 -57q-37 -43 -37 -74q0 -26 23 -44q27 -20 76 -20q47 0 75 11q20 9 20 14l-1 -2q-47 9 -47 50q0 23 17.5 38t44.5 15q26 0 43 -15t17 -39z" />
    <glyph glyph-name="multiply" unicode="&#xd7;" horiz-adv-x="581" 
d="M549 427l-202 -184l202 -186l-56 -51l-203 186l-201 -186l-56 51l201 186l-201 184l56 52l201 -186l203 186z" />
    <glyph glyph-name="divide" unicode="&#xf7;" horiz-adv-x="382" 
d="M255 385q0 -23 -17.5 -39t-42.5 -16t-42.5 16t-17.5 39t17.5 39t42.5 16t42.5 -16t17.5 -39zM336 225h-283v58h283v-58zM255 116q0 -23 -17.5 -39t-42.5 -16t-42.5 16t-17.5 39t17.5 39t42.5 16t42.5 -16t17.5 -39z" />
    <glyph glyph-name="florin" unicode="&#x192;" horiz-adv-x="500" 
d="M488 623q0 -38 -33 -38q-12 0 -21.5 8t-9.5 19q0 7 5.5 17t5.5 13q0 13 -18 13q-41 0 -63 -97q-9 -65 -19 -131h87l-8 -32h-85q-26 -134 -84 -346q-45 -165 -100 -219q-41 -40 -84 -40q-25 0 -42.5 13.5t-17.5 37.5q0 17 10.5 30t27.5 13q11 0 21 -8t10 -19
q0 -8 -5.5 -17t-5.5 -11q0 -10 12 -10q24 0 47 36q13 22 29 86q4 18 42 203q3 15 60 251h-86l7 32l44 4q30 5 45 31q7 11 22 54q25 74 46 105q38 56 94 56q27 0 46 -13q21 -16 21 -41z" />
    <glyph glyph-name="uni05B0" unicode="&#x5b0;" horiz-adv-x="76" 
d="M76 -100q0 -16 -11 -27t-27 -11t-27 11t-11 27t11 27t27 11t27 -11t11 -27zM76 -208q0 -16 -11 -27t-27 -11t-27 11t-11 27t11 27t27 11t27 -11t11 -27z" />
    <glyph glyph-name="uni05B1" unicode="&#x5b1;" horiz-adv-x="334" 
d="M334 -100q0 -16 -11 -27t-27 -11t-27 11t-11 27t11 27t27 11t27 -11t11 -27zM334 -208q0 -16 -11 -27t-27 -11t-27 11t-11 27t11 27t27 11t27 -11t11 -27zM205 -100q0 -16 -11 -27t-27 -11t-27 11t-11 27t11 27t27 11t27 -11t11 -27zM76 -100q0 -16 -11 -27t-27 -11
t-27 11t-11 27t11 27t27 11t27 -11t11 -27zM141 -208q0 -16 -11 -27t-27 -11t-27 11t-11 27t11 27t27 11t27 -11t11 -27z" />
    <glyph glyph-name="uni05B2" unicode="&#x5b2;" horiz-adv-x="324" 
d="M324 -100q0 -16 -11 -27t-27 -11t-27 11t-11 27t11 27t27 11t27 -11t11 -27zM324 -208q0 -16 -11 -27t-27 -11t-27 11t-11 27t11 27t27 11t27 -11t11 -27zM198 -120h-198v52h198v-52z" />
    <glyph glyph-name="uni05B3" unicode="&#x5b3;" horiz-adv-x="324" 
d="M324 -100q0 -16 -11 -27t-27 -11t-27 11t-11 27t11 27t27 11t27 -11t11 -27zM324 -208q0 -16 -11 -27t-27 -11t-27 11t-11 27t11 27t27 11t27 -11t11 -27zM198 -120h-76l9 -104h-60l9 104h-80v52h198v-52z" />
    <glyph glyph-name="uni05B4" unicode="&#x5b4;" horiz-adv-x="76" 
d="M76 -100q0 -16 -11 -27t-27 -11t-27 11t-11 27t11 27t27 11t27 -11t11 -27z" />
    <glyph glyph-name="uni05B5" unicode="&#x5b5;" horiz-adv-x="205" 
d="M205 -100q0 -16 -11 -27t-27 -11t-27 11t-11 27t11 27t27 11t27 -11t11 -27zM76 -100q0 -16 -11 -27t-27 -11t-27 11t-11 27t11 27t27 11t27 -11t11 -27z" />
    <glyph glyph-name="uni05B6" unicode="&#x5b6;" horiz-adv-x="205" 
d="M205 -100q0 -16 -11 -27t-27 -11t-27 11t-11 27t11 27t27 11t27 -11t11 -27zM76 -100q0 -16 -11 -27t-27 -11t-27 11t-11 27t11 27t27 11t27 -11t11 -27zM141 -208q0 -16 -11 -27t-27 -11t-27 11t-11 27t11 27t27 11t27 -11t11 -27z" />
    <glyph glyph-name="uni05B7" unicode="&#x5b7;" horiz-adv-x="198" 
d="M198 -120h-198v52h198v-52z" />
    <glyph glyph-name="uni05B8" unicode="&#x5b8;" horiz-adv-x="198" 
d="M198 -120h-76l9 -104h-60l9 104h-80v52h198v-52z" />
    <glyph glyph-name="uni05B9" unicode="&#x5b9;" horiz-adv-x="76" 
d="M76 543q0 -16 -11 -27t-27 -11t-27 11t-11 27t11 27t27 11t27 -11t11 -27z" />
    <glyph glyph-name="uni05BB" unicode="&#x5bb;" horiz-adv-x="266" 
d="M266 -208q0 -16 -11 -27t-27 -11t-27 11t-11 27t11 27t27 11t27 -11t11 -27zM171 -154q0 -16 -11 -27t-27 -11t-27 11t-11 27t11 27t27 11t27 -11t11 -27zM76 -100q0 -16 -11 -27t-27 -11t-27 11t-11 27t11 27t27 11t27 -11t11 -27z" />
    <glyph glyph-name="uni05BC" unicode="&#x5bc;" horiz-adv-x="76" 
d="M76 232q0 -16 -11 -27t-27 -11t-27 11t-11 27t11 27t27 11t27 -11t11 -27z" />
    <glyph glyph-name="uni05BD" unicode="&#x5bd;" horiz-adv-x="45" 
d="M45 -193h-45v127h45v-127z" />
    <glyph glyph-name="uni05BE" unicode="&#x5be;" horiz-adv-x="194" 
d="M194 596h-194v95h194v-95z" />
    <glyph glyph-name="uni05BF" unicode="&#x5bf;" horiz-adv-x="343" 
d="M393 500l-13 -47h-239l13 47h239z" />
    <glyph glyph-name="uni05C0" unicode="&#x5c0;" horiz-adv-x="113" 
d="M232 717l-229 -864h-42l231 864h40z" />
    <glyph glyph-name="uni05C1" unicode="&#x5c1;" horiz-adv-x="581" 
d="M542 543q0 -16 -11 -27t-27 -11t-27 11t-11 27t11 27t27 11t27 -11t11 -27z" />
    <glyph glyph-name="uni05C2" unicode="&#x5c2;" horiz-adv-x="581" 
d="M174 543q0 -16 -11 -27t-27 -11t-27 11t-11 27t11 27t27 11t27 -11t11 -27z" />
    <glyph glyph-name="uni05C3" unicode="&#x5c3;" horiz-adv-x="200" 
d="M191 345q0 -17 -14.5 -31t-31.5 -14q-23 0 -23 22q0 17 14 31t31 14q24 0 24 -22zM117 44q0 -18 -13.5 -31t-31.5 -13q-23 0 -23 22q0 16 14 30t30 14q24 0 24 -22z" />
    <glyph glyph-name="uni05D0" unicode="&#x5d0;" horiz-adv-x="493" 
d="M517 403q0 -69 -35 -69q-15 0 -29 10t-9 24q6 18 6 44q0 38 -19 55q-15 14 -54 21q-131 -33 -172 -188q-29 -108 -29 -159q0 -53 15 -77q17 -30 65 -38q50 8 78.5 26t39 47t25 38t29.5 9q20 0 20 -19q0 -76 -81 -102q-58 -19 -118 -25q-53 4 -75 13q-39 16 -39 56l-5 -19
q-10 -37 -35 -52q-21 -12 -62 -12q16 27 46 107l117 437q35 129 144 129q-50 -40 -75 -129l-20 -72q41 43 138 52q65 -7 94 -24q40 -25 40 -83z" />
    <glyph glyph-name="uni05D1" unicode="&#x5d1;" horiz-adv-x="478" 
d="M487 361q0 -45 -15 -99q-27 -96 -66 -163q-60 -101 -132 -101q-60 0 -60 45q0 17 11.5 52.5t11.5 48.5q0 23 -25 23q-30 -7 -38 -39l-9 -35q-11 -43 -45 -74q-37 -33 -80 -33q4 12 26.5 44t30.5 63l12 45q14 53 62 62h50q60 0 60 -50q0 -18 -10 -52t-10 -50q0 -22 21 -22
q69 36 111 196q29 110 29 156q0 48 -13 72q-17 30 -60 38q-128 -22 -149 -104q-17 -64 -54 -64q-23 0 -23 25q0 46 27 81.5t70 51.5q65 24 135 32q75 -4 103.5 -37.5t28.5 -111.5z" />
    <glyph glyph-name="uni05D2" unicode="&#x5d2;" horiz-adv-x="467" 
d="M504 481q0 -18 -12 -45q-38 -85 -44 -116l-15 -102q-5 -32 -26 -32q2 0 -22 8q-6 4 -10.5 9.5t-4.5 15.5q0 9 5 30t5 33q0 35 -18 51q-14 12 -51 19q-118 -36 -161 -194q-22 -81 -22 -127q0 -50 16 -74q18 -29 64 -37q81 7 95 57q17 60 55 60q19 0 19 -22q0 -76 -72 -99
q-57 -18 -104 -22q-74 10 -105 41q-34 34 -34 108q0 64 26 135t69 114q80 80 160 80q30 0 45 -4q4 -1 11 -4.5t10 -5.5q21 0 35 49q11 37 11 69q0 12 -8 33q-7 18 -6 25q89 0 89 -53z" />
    <glyph glyph-name="uni05D3" unicode="&#x5d3;" horiz-adv-x="438" 
d="M456 391q0 -26 -9 -61q-18 -68 -144 -116q35 -53 35 -98q0 -13 -9.5 -47t-49.5 -54.5t-75 -28.5q57 69 68 113q9 37 9 57q0 23 -3 33q-2 6 -6 14q-11 -4 -24 -4q-27 0 -27 21q0 14 9.5 24t23.5 10q25 0 39 -24q67 30 84 92q13 48 13 82q0 39 -13.5 58t-50.5 26
q-114 -13 -138 -96q-10 -34 -17 -44q-12 -18 -39 -18q-23 0 -23 16q0 4 1 8q15 57 57.5 96t101.5 51q44 9 63 9q64 -7 91 -30q33 -28 33 -89z" />
    <glyph glyph-name="uni05D4" unicode="&#x5d4;" horiz-adv-x="458" 
d="M472 366q0 -48 -15 -104l-45 -169q-28 -107 -86 -107l74 276q18 67 18 118q0 47 -13 71q-17 29 -59 37q-108 -7 -136 -108q-13 -46 -18 -58q-17 -35 -44 -35q-22 0 -22 25q0 37 22 77q21 37 51 61q76 60 153 60q66 -10 93 -43t27 -101zM174 176l-22 -83
q-28 -107 -97 -107l51 190q4 13 12 19.5t21 6.5q12 0 25 -7.5t10 -18.5z" />
    <glyph glyph-name="uni05D5" unicode="&#x5d5;" horiz-adv-x="217" 
d="M250 472q0 -26 -11 -67l-84 -312q-29 -107 -97 -107l113 419q16 59 16 89q0 15 -5.5 24t-3.5 16q39 0 55.5 -12t16.5 -50z" />
    <glyph glyph-name="uni05D6" unicode="&#x5d6;" horiz-adv-x="468" 
d="M427 191q0 -45 -14 -98q-20 -77 -63 -135q-50 -67 -118 -88q-46 -14 -65 -14q-64 7 -91 24q-39 24 -39 81q0 55 22 80q10 12 21 12q16 0 25.5 -16t5.5 -32q-7 -28 -7 -47q0 -37 16 -53t54 -23q124 34 161 174q27 101 27 152q0 48 -13 72q-16 31 -58 38q-81 0 -112 -76
q-20 -74 -92 -74q18 45 40 104q7 24 14 75t14 76q12 43 57.5 78t89.5 35q8 0 10 -2q-30 -18 -55.5 -51.5t-34.5 -66.5q-14 -52 -14 -77v-13q1 -3 2 -8q30 24 82 24q73 -10 104 -43.5t31 -107.5z" />
    <glyph glyph-name="uni05D7" unicode="&#x5d7;" horiz-adv-x="473" 
d="M483 377q0 -52 -18 -119l-43 -160q-19 -69 -47 -88.5t-51 -23.5l73 272q24 89 24 147q0 83 -50 83q-67 -10 -104 -51q-31 -35 -50 -107l-62 -232q-18 -69 -46.5 -88.5t-51.5 -23.5l89 332q4 15 -8 15q-11 0 -34 -15h-3q0 7 48 52q15 14 27 58q10 37 10 64q0 7 -2.5 22
t-1.5 20q72 0 72 -67q67 43 123 43q106 0 106 -133z" />
    <glyph glyph-name="uni05D8" unicode="&#x5d8;" horiz-adv-x="450" 
d="M620 629q0 -30 -40 -30q-150 0 -254.5 -78.5t-144.5 -223.5q-37 -135 -37 -174q0 -47 15.5 -68t59.5 -29q105 27 141 161q20 74 20 112q0 53 -32 62q-14 0 -26 -12l-24 -24q-4 0 -8 11q-7 18 20 31q22 10 41 10q49 -7 70 -31t21 -74q0 -54 -22 -110q-23 -60 -60 -94
q-74 -68 -148 -68q-68 7 -99 35q-35 31 -35 97q0 32 27 135q25 97 117 197q88 95 184 139q103 47 187 47q27 0 27 -21z" />
    <glyph glyph-name="uni05D9" unicode="&#x5d9;" horiz-adv-x="224" 
d="M250 472q0 -26 -11 -67l-26 -96q-29 -107 -97 -107l55 203q16 59 16 89q0 15 -5.5 24t-3.5 16q39 0 55.5 -12t16.5 -50z" />
    <glyph glyph-name="uni05DA" unicode="&#x5da;" horiz-adv-x="478" 
d="M487 361q0 -45 -15 -99q-27 -96 -66 -163q-60 -101 -132 -101q-60 0 -60 45q0 17 11.5 52.5t11.5 48.5q0 23 -25 23q-29 -7 -38 -39l-55 -206q-11 -42 -47 -74.5t-78 -32.5q4 13 26.5 45.5t30.5 61.5l58 216q14 53 62 62h50q60 0 60 -50q0 -18 -10 -52t-10 -50
q0 -22 21 -22q69 36 111 196q29 110 29 156q0 48 -13 72q-17 30 -60 38q-128 -22 -149 -104q-17 -64 -54 -64q-23 0 -23 25q0 46 27 81.5t70 51.5q65 24 135 32q75 -4 103.5 -37.5t28.5 -111.5z" />
    <glyph glyph-name="uni05DB" unicode="&#x5db;" horiz-adv-x="488" 
d="M495 361q0 -45 -15 -99q-23 -84 -66 -147q-52 -77 -122 -100q-46 -15 -66 -15q-73 6 -105 24q-48 26 -48 88q0 52 19 71q9 9 21 9q13 0 25 -12t9 -25q-6 -24 -6 -43q0 -44 25 -64q20 -15 67 -22q126 37 168 195q29 110 29 157q0 48 -13 72q-17 30 -60 38
q-128 -22 -149 -104q-17 -64 -54 -64q-23 0 -23 25q0 46 27 81.5t70 51.5q65 24 135 32q75 -4 103.5 -37.5t28.5 -111.5z" />
    <glyph glyph-name="uni05DC" unicode="&#x5dc;" horiz-adv-x="320" 
d="M533 637q0 -35 -25 -35q-6 0 -12 8q-30 30 -56 30q-82 0 -139 -212l-74 -275q-18 -65 -73 -124q-62 -66 -125 -66q-24 0 -24 18q0 14 13.5 31t26.5 17q5 0 19.5 -5.5t20.5 -5.5q39 0 75 135l74 275q28 104 85 164q67 72 165 71q7 0 13 -1h6q30 0 30 -25z" />
    <glyph glyph-name="uni05DD" unicode="&#x5dd;" horiz-adv-x="473" 
d="M489 377q0 -52 -18 -119q-21 -77 -54 -138q-46 -82 -101 -105q-38 -16 -49 -15q-114 7 -114 69l-5 -19q-17 -64 -102 -64q16 27 46 107l60 225q4 15 -8 15q-11 0 -34 -15h-3q0 7 48 52q15 14 27 58q10 37 10 64q0 7 -2.5 22t-1.5 20q72 0 72 -67q67 43 123 43
q106 0 106 -133zM427 405q0 83 -50 83q-67 -10 -104 -51q-31 -35 -50 -107l-34 -128q-10 -38 -10 -70q0 -52 21.5 -75.5t73.5 -30.5q78 40 129 232q24 89 24 147z" />
    <glyph glyph-name="uni05DE" unicode="&#x5de;" horiz-adv-x="502" 
d="M626 623q-86 -54 -126 -202l-104 -386q-10 -37 -62 -37q-30 0 -34 18l-75 381q-4 0 -5 1q-6 -9 -10 -24l-67 -249q-37 -139 -124 -139q32 52 56 139l104 385q5 20 30 20q23 0 27 -20l83 -459q1 -8 8 -8q3 0 5 7l103 383q51 190 173 190h18z" />
    <glyph glyph-name="uni05DF" unicode="&#x5df;" horiz-adv-x="219" 
d="M250 472q0 -26 -11 -67l-130 -482q-29 -107 -96 -107l158 589q16 60 16 89q0 15 -5.5 24t-3.5 16q39 0 55.5 -12t16.5 -50z" />
    <glyph glyph-name="uni05E0" unicode="&#x5e0;" horiz-adv-x="303" 
d="M356 534q-34 -61 -56 -144l-86 -324q-14 -54 -53 -78q-30 -19 -92 -26q-33 2 -48 5q-24 5 -19 22q11 39 39 39q20 0 20 -22q0 -7 -1 -9q-2 -11 7 -12q6 -2 20 -4q38 9 55 71l102 382q27 100 112 100z" />
    <glyph glyph-name="uni05E1" unicode="&#x5e1;" horiz-adv-x="483" 
d="M490 370q0 -46 -16 -108q-21 -82 -65 -146q-52 -79 -121 -101q-46 -15 -64 -15q-77 10 -109 45.5t-32 113.5q0 84 31 161q34 82 94 133q115 97 233 97q16 0 16 -9q0 -8 -40 -16q-25 -4 -51 -9q-59 -18 -115.5 -82.5t-72.5 -126.5q-29 -112 -29 -161q0 -53 15 -80
q19 -32 67 -40q121 37 165 199q33 121 33 177t-28 64q-64 -12 -111 -79q-4 -6 3 -18t4 -16q-17 -19 -34 -19q-11 0 -11 11q0 23 40 69.5t65 54.5q39 12 50 13q52 -5 69 -32q14 -22 14 -80z" />
    <glyph glyph-name="uni05E2" unicode="&#x5e2;" horiz-adv-x="428" 
d="M525 541q0 -9 -8.5 -15.5t-17.5 -3.5q-12 4 -22 4q-21 0 -77 -16q-39 -11 -57 -22q50 -38 70 -76.5t20 -101.5q0 -69 -34 -149q-30 -71 -82 -114q-59 -49 -130 -49q-114 0 -114 139q0 40 20 118q13 51 62 112q45 57 93 90q45 31 52 31q-19 19 -52 27q-24 6 -27 6
q-13 0 -19 -13q-10 -20 -11 -21q-4 -4 -10 -4q-16 0 -12 18q2 14 26 25q21 9 37 9q34 0 70 -20q15 -8 22 -14q23 10 71 27q31 9 94 22l15 2h5q16 0 16 -11zM366 317q0 90 -52 155q-11 0 -56 -55q-36 -45 -50 -67q-49 -76 -68 -180q-6 -33 -6 -56q0 -88 61 -88q65 0 107 66
q26 41 50 126q14 50 14 99z" />
    <glyph glyph-name="uni05E3" unicode="&#x5e3;" horiz-adv-x="371" 
d="M453 574q0 -17 -7 -44q-13 -50 -74 -88q-35 -22 -110 -50l-64 -239q-18 -66 -73 -125q-61 -65 -124 -65q-24 0 -24 18q0 14 13.5 31t26.5 17q4 0 18.5 -5.5t20.5 -5.5q38 0 74 135l59 221q-75 -23 -84 -62q-5 -22 -5 -28q0 -20 18 -24q13 0 13 -11q0 -10 -10 -19t-20 -9
q-16 0 -27 19q-6 11 -6 29q0 64 49 94q37 23 79 35l30 112q17 64 47 98.5t91 50.5q45 -5 65 -22q24 -19 24 -63zM401 581q0 27 -9 39.5t-34 17.5q-10 -3 -20 -8q-15 -8 -28 -58l-42 -158q31 0 75 43q41 40 50 73q8 30 8 51z" />
    <glyph glyph-name="uni05E4" unicode="&#x5e4;" horiz-adv-x="438" 
d="M451 358q0 -48 -15 -102q-23 -83 -66 -145q-53 -76 -123 -98q-48 -15 -65 -15q-60 7 -84 22q-36 22 -36 75q0 48 20 86q23 43 64 59q53 20 109 28q44 0 44 -54q0 -23 -9 -41q-11 -23 -32 -23q-23 0 -23 16q0 8 18 35t18 32q0 11 -24 11q-87 -14 -104 -80q-13 -50 -13 -71
q0 -33 15 -47q12 -12 45 -20q126 37 167 192q29 110 29 158q0 47 -14 72q-16 30 -58 40q-86 -8 -102 -67q-19 -70 -57 -70q-21 0 -21 26q0 81 77 108q53 19 109 25q74 -4 102.5 -39.5t28.5 -112.5z" />
    <glyph glyph-name="uni05E5" unicode="&#x5e5;" horiz-adv-x="398" 
d="M481 574q0 -16 -7 -44q-13 -52 -74 -91q-35 -22 -111 -51l-63 -235q-18 -66 -73 -125q-61 -65 -124 -65q-24 0 -24 18q0 14 13.5 31t26.5 17q4 0 18.5 -5.5t20.5 -5.5q38 0 74 135l59 221q-14 -2 -28 -2q-66 0 -84 55q-7 21 -7 46q0 65 55 105q38 28 55 28q18 0 12 -24
t-53 -58q-43 -31 -43 -62q0 -45 28 -59q18 -9 41 -9q19 0 31 4l30 112q17 64 47 98.5t91 50.5q45 -5 65 -22q24 -19 24 -63zM420 585q0 33 -10.5 41.5t-23.5 11.5q-10 -3 -20 -8q-15 -8 -28 -58l-43 -160q30 0 71 44q38 42 46 74q3 12 5.5 29t2.5 26z" />
    <glyph glyph-name="uni05E6" unicode="&#x5e6;" horiz-adv-x="429" 
d="M503 525q0 -56 -19 -86t-71 -54q-39 -18 -51 -26q-28 -20 -28 -46q0 -20 34 -61t34 -61q0 -73 -72 -132q-75 -61 -155 -61q-46 5 -67 22q-24 20 -24 64q0 49 19 68q9 9 20 9q13 0 25.5 -11.5t9.5 -23.5q-8 -30 -8 -51q0 -45 33 -49q111 7 137 104q18 67 18 85
q0 33 -36 67q-34 31 -31 44q4 15 74.5 57.5t80.5 80.5q11 42 11 72q0 67 -29 84q-14 8 -48 13q-19 0 -26 -10q-8 -18 -12 -26q-7 -12 -30 -12q-35 0 -35 22q0 18 35 35q28 13 74 13q35 -4 44 -6q21 -4 43 -14q50 -23 50 -110z" />
    <glyph glyph-name="uni05E7" unicode="&#x5e7;" horiz-adv-x="453" 
d="M463 366q0 -50 -15 -104q-22 -78 -57 -140q-47 -84 -103 -107q-37 -15 -52 -15q-24 0 -45 3q-4 3 -12 11q37 34 52 34q11 0 11.5 -7t0.5 -15q94 33 137 196q29 110 29 158q0 47 -13 71q-17 29 -59 37q-108 -7 -136 -108q-13 -46 -18 -58q-17 -35 -44 -35q-22 0 -22 25
q0 37 22 77q21 37 51 61q76 60 153 60q66 -10 93 -43t27 -101zM165 176l-68 -253q-29 -107 -96 -107l28 107l68 253q4 13 12 19.5t21 6.5q12 0 25 -7.5t10 -18.5z" />
    <glyph glyph-name="uni05E8" unicode="&#x5e8;" horiz-adv-x="443" 
d="M457 366q0 -48 -15 -104l-45 -169q-28 -107 -86 -107l74 276q18 67 18 118q0 47 -13 71q-17 29 -59 37q-108 -7 -136 -108q-13 -46 -18 -58q-17 -35 -44 -35q-22 0 -22 25q0 37 22 77q21 37 51 61q76 60 153 60q66 -10 93 -43t27 -101z" />
    <glyph glyph-name="uni05E9" unicode="&#x5e9;" horiz-adv-x="426" 
d="M461 397q0 -29 -10 -65q-19 -69 -67 -98q-37 -23 -116 -32q-46 0 -46 14q0 4 3 8q24 28 31 28q2 0 6 -14t12 -14q84 13 103 85q18 68 18 103q0 50 -25 65q-12 7 -25 11q-120 -31 -167 -205q-25 -93 -25 -146q0 -49 11 -72q16 -31 58 -39q69 8 78 43q12 46 55 46
q20 0 20 -18q0 -59 -64 -78q-50 -15 -96 -19q-71 13 -99 46t-28 106q0 51 27 150q16 60 65.5 118.5t105.5 75.5q45 14 65 14q58 -7 82 -30q28 -26 28 -83z" />
    <glyph glyph-name="uni05EA" unicode="&#x5ea;" horiz-adv-x="503" 
d="M512 377q0 -52 -18 -119l-43 -160q-19 -69 -47 -88.5t-51 -23.5l73 272q24 89 24 147q0 83 -50 83q-67 -10 -104 -51q-31 -35 -50 -107l-70 -264q-14 -54 -53 -78q-30 -19 -92 -26q-33 2 -48 5q-24 5 -19 22q11 39 39 39q20 0 20 -22q0 -7 -1 -9q-2 -11 7 -12q6 -2 20 -4
q38 9 55 71l71 266q4 15 -8 15q-11 0 -34 -15h-3q0 7 48 52q15 14 27 58q10 37 10 64q0 7 -2.5 22t-1.5 20q72 0 72 -67q67 43 123 43q106 0 106 -133z" />
    <glyph glyph-name="uni05F0" unicode="&#x5f0;" horiz-adv-x="426" 
d="M459 472q0 -26 -11 -67l-84 -312q-29 -107 -97 -107l113 419q16 59 16 89q0 15 -5.5 24t-3.5 16q39 0 55.5 -12t16.5 -50zM250 472q0 -26 -11 -67l-84 -312q-29 -107 -97 -107l113 419q16 59 16 89q0 15 -5.5 24t-3.5 16q39 0 55.5 -12t16.5 -50z" />
    <glyph glyph-name="uni05F1" unicode="&#x5f1;" horiz-adv-x="426" 
d="M459 472q0 -26 -11 -67l-84 -312q-29 -107 -97 -107l113 419q16 59 16 89q0 15 -5.5 24t-3.5 16q39 0 55.5 -12t16.5 -50zM250 472q0 -26 -11 -67l-26 -96q-29 -107 -97 -107l55 203q16 59 16 89q0 15 -5.5 24t-3.5 16q39 0 55.5 -12t16.5 -50z" />
    <glyph glyph-name="uni05F2" unicode="&#x5f2;" horiz-adv-x="433" 
d="M459 472q0 -26 -11 -67l-26 -96q-29 -107 -97 -107l55 203q16 59 16 89q0 15 -5.5 24t-3.5 16q39 0 55.5 -12t16.5 -50zM250 472q0 -26 -11 -67l-26 -96q-29 -107 -97 -107l55 203q16 59 16 89q0 15 -5.5 24t-3.5 16q39 0 55.5 -12t16.5 -50z" />
    <glyph glyph-name="uni05F3" unicode="&#x5f3;" horiz-adv-x="208" 
d="M280 581q-12 -15 -44 -72q-29 -51 -42 -64q-8 -11 -57 -27q42 45 94 147z" />
    <glyph glyph-name="uni05F4" unicode="&#x5f4;" horiz-adv-x="273" 
d="M332 565q-20 -47 -64 -138q-5 -8 -25.5 -20.5t-32.5 -16.5q42 56 76 154zM248 562q-58 -96 -69 -136q-4 -14 -56 -40q13 26 76 154z" />
    <glyph glyph-name="uni200E" unicode="&#x200e;" horiz-adv-x="406" 
d="M375 448l-164 -152v108h-70v-404h-86v490h156v110z" />
    <glyph glyph-name="uni200F" unicode="&#x200f;" horiz-adv-x="406" 
d="M351 0h-86v404h-70v-108l-164 152l164 152v-110h156v-490z" />
    <glyph glyph-name="endash" unicode="&#x2013;" horiz-adv-x="268" 
d="M250 265l-8 -32h-146l8 32h146z" />
    <glyph glyph-name="emdash" unicode="&#x2014;" horiz-adv-x="343" 
d="M393 500l-13 -47h-239l13 47h239z" />
    <glyph glyph-name="uni2015" unicode="&#x2015;" horiz-adv-x="513" 
d="M502 274l-13 -47h-377l13 47h377z" />
    <glyph glyph-name="quoteleft" unicode="&#x2018;" horiz-adv-x="208" 
d="M267 581q-12 -15 -44 -72q-29 -51 -42 -64q-8 -11 -57 -27q42 45 94 147z" />
    <glyph glyph-name="quoteright" unicode="&#x2019;" horiz-adv-x="208" 
d="M276 581q-16 -21 -49 -75l-37 -61q-5 -8 -57 -27q44 49 94 147z" />
    <glyph glyph-name="quotesinglbase" unicode="&#x201a;" horiz-adv-x="178" 
d="M120 56q-16 -22 -51 -78l-37 -60q-4 -5 -56 -25q37 43 94 147z" />
    <glyph glyph-name="quotedblleft" unicode="&#x201c;" horiz-adv-x="273" 
d="M340 565q-20 -47 -64 -138q-14 -19 -58 -37q36 48 76 154zM256 562q-58 -96 -69 -136q-4 -14 -56 -40l76 154z" />
    <glyph glyph-name="quotedblright" unicode="&#x201d;" horiz-adv-x="273" 
d="M340 565q-20 -47 -64 -138q-14 -19 -58 -37q36 48 76 154zM256 562q-58 -96 -69 -136q-4 -14 -56 -40l76 154z" />
    <glyph glyph-name="quotedblbase" unicode="&#x201e;" horiz-adv-x="273" 
d="M220 56q-16 -22 -51 -78l-37 -60q-4 -5 -56 -25q37 43 94 147zM120 56q-16 -22 -51 -78l-37 -60q-4 -5 -56 -25q37 43 94 147z" />
    <glyph glyph-name="dagger" unicode="&#x2020;" horiz-adv-x="271" 
d="M222 423h-67v-357h-36v357h-66v33h66v64q0 11 -9 31.5t-9 33.5q0 11 7.5 33.5t11.5 44.5q6 26 17 26t17 -26q4 -22 11.5 -44.5t7.5 -33.5q0 -13 -9 -33.5t-9 -31.5v-64h67v-33z" />
    <glyph glyph-name="daggerdbl" unicode="&#x2021;" horiz-adv-x="271" 
d="M221 174h-67v-64q0 -11 9 -31.5t9 -33.5q0 -11 -7.5 -33.5t-11.5 -44.5q-6 -27 -17 -27t-17 27q-4 22 -11.5 44.5t-7.5 33.5q0 13 9 33.5t9 31.5v64h-66v33h66v215h-66v34h66v64q0 10 -9 31t-9 33t7.5 34.5t11.5 44.5q6 26 17 26t17 -26q4 -22 11.5 -44.5t7.5 -34.5
t-9 -33t-9 -31v-64h67v-34h-67v-215h67v-33z" />
    <glyph glyph-name="bullet" unicode="&#x2022;" horiz-adv-x="471" 
d="M405 227q0 -65 -50.5 -110.5t-120.5 -45.5q-71 0 -121.5 45.5t-50.5 110.5q0 64 50.5 109.5t121.5 45.5q70 0 120.5 -45.5t50.5 -109.5z" />
    <glyph glyph-name="ellipsis" unicode="&#x2026;" horiz-adv-x="448" 
d="M373 44q0 -18 -13.5 -31t-31.5 -13q-23 0 -23 22q0 17 13.5 30.5t30.5 13.5q24 0 24 -22zM233 44q0 -18 -13.5 -31t-31.5 -13q-23 0 -23 22q0 17 13.5 30.5t30.5 13.5q24 0 24 -22zM93 44q0 -18 -13.5 -31t-31.5 -13q-23 0 -23 22q0 17 13.5 30.5t30.5 13.5q24 0 24 -22z
" />
    <glyph glyph-name="perthousand" unicode="&#x2030;" horiz-adv-x="1138" 
d="M1096 179q0 -78 -41 -131q-45 -59 -125 -59q-83 0 -132 60q-43 53 -43 130q0 75 42 127q48 59 129 59t129 -59q41 -52 41 -127zM736 179q0 -78 -41 -131q-46 -59 -125 -59q-84 0 -132 60q-44 53 -44 130q0 75 43 127q47 59 128 59q82 0 129 -59q42 -52 42 -127zM638 656
l-465 -660h-47l465 660h47zM372 469q0 -77 -41 -130q-45 -59 -125 -59q-83 0 -132 60q-43 53 -43 129t42 128q48 59 129 59t128 -59q42 -52 42 -128zM1001 167v23q0 80 -11 109q-15 45 -64 45t-65 -46q-11 -29 -11 -108v-23q0 -82 11 -111q16 -45 69 -45q46 0 60 43
q11 30 11 113zM640 167v23q0 80 -10 109q-16 45 -65 45t-65 -46q-10 -29 -10 -108v-23q0 -82 10 -111q17 -45 70 -45q45 0 60 43q10 30 10 113zM277 458v23q0 79 -11 109q-15 44 -64 44t-65 -45q-11 -30 -11 -108v-23q0 -82 11 -111q16 -46 69 -46q46 0 60 44q11 30 11 113z
" />
    <glyph glyph-name="guilsinglleft" unicode="&#x2039;" horiz-adv-x="271" 
d="M238 108h-30l-179 150l179 150h30l-129 -150z" />
    <glyph glyph-name="guilsinglright" unicode="&#x203a;" horiz-adv-x="271" 
d="M243 258l-180 -150h-28l129 150l-129 150h28z" />
    <glyph glyph-name="uni20AA" unicode="&#x20aa;" horiz-adv-x="523" 
d="M538 366l-98 -366h-285l63 234h47l-51 -188h192l86 320h46zM416 366l-62 -230h-45l50 184h-192l-86 -320h-47l98 366h284z" />
    <glyph glyph-name="trademark" unicode="&#x2122;" horiz-adv-x="510" 
d="M467 464h-96v16h28v116l-48 -132h-12l-53 125v-109h29v-16h-77v16h28v148h-28v17h63l52 -123l46 123h68v-17h-27v-148h27v-16zM216 600h-17q-2 10 -5 16q-6 12 -25 12h-22v-148h28v-16h-97v16h27v148h-23q-25 0 -30 -28h-17l5 45h172z" />
    <glyph glyph-name="onethird" unicode="&#x2153;" horiz-adv-x="387" 
d="M286 380h-149v18h46v251l-48 -4v17l97 11l7 -5v-270h47v-18zM363 323h-309v29h309v-29zM318 79q0 -37 -31.5 -63.5t-77.5 -26.5q-34 0 -61 15q-31 18 -31 47q0 34 34 34t34 -33q0 -19 -25 -30q-1 0 -1 -1t1 -2q16 -11 44 -11q60 0 60 70q0 65 -65 65q-5 0 -17 -1h-15
q-15 0 -15 10q0 11 15 11q4 0 15.5 -1t16.5 -1q60 0 60 61q0 52 -49 52q-43 0 -43 -10q-1 0 1 0q22 -6 22 -28q0 -27 -32 -27t-32 31q0 18 20 33q25 19 67 19q41 0 69 -17q33 -21 33 -57q0 -47 -58 -67q61 -19 61 -72z" />
    <glyph glyph-name="twothirds" unicode="&#x2154;" horiz-adv-x="387" 
d="M320 459v-4l-6 -83h-213v28l114 100q43 37 43 90q0 57 -57 57q-22 0 -41 -8t-19 -17h2q2 1 6 1q13 0 22 -9t9 -19q0 -31 -37 -31q-35 0 -35 33t31 51t74 18q41 0 68 -15q34 -19 34 -56q0 -43 -84 -109l-87 -70h117q28 0 37 29t14 29q8 0 8 -15zM356 317h-310v30h310v-30z
M310 79q0 -37 -31 -63.5t-77 -26.5q-35 0 -61 15q-31 18 -31 47q0 34 34 34t34 -33q0 -19 -25 -30q-1 0 -1 -1t1 -2q15 -11 44 -11q60 0 60 70q0 65 -65 65q-5 0 -17 -1h-15q-15 0 -15 10q0 11 15 11q4 0 15.5 -1t16.5 -1q60 0 60 61q0 52 -49 52q-43 0 -43 -10q-1 0 1 0
q22 -6 22 -28q0 -27 -33 -27q-31 0 -31 31q0 18 20 33q25 19 67 19q41 0 69 -17q32 -21 32 -57q0 -47 -58 -67q61 -19 61 -72z" />
    <glyph glyph-name="uni2421" unicode="&#x2421;" horiz-adv-x="781" 
d="M742 0h-179v286h39v-252h140v-34zM527 0h-214v286h208v-34h-169v-87h158v-34h-158v-97h175v-34zM279 145q0 -119 -87 -140q-20 -5 -46 -5h-104v286h99q34 0 51 -4q87 -20 87 -137zM240 146q0 81 -51 101q-15 5 -48 5h-61v-218h62q49 0 69 20q29 29 29 92z" />
    <glyph glyph-name="uniE802" unicode="&#xe802;" horiz-adv-x="527" 
d="M536 361q0 -45 -15 -99q-27 -96 -66 -163q-60 -101 -132 -101q-60 0 -60 45q0 17 11.5 53t11.5 48q0 23 -25 23q-29 -7 -38 -39l-55 -206q-11 -43 -46.5 -75t-78.5 -32q4 13 26.5 45.5t30.5 61.5l58 216q14 53 62 62h50q60 0 60 -50q0 -18 -10 -52t-10 -50q0 -22 21 -22
q69 36 111 196q29 110 29 156q0 48 -13 72q-17 30 -60 38q-63 -11 -98.5 -36t-50 -68.5t-27.5 -53.5t-27 -10q-23 0 -23 25q0 46 27 81.5t70 51.5q65 24 135 32q22 -1 79 -20q53 -17 53 -129zM190 236h-68l2 -100h-47l2 100h-66v42h177v-42z" />
    <glyph glyph-name="uniE803" unicode="&#xe803;" horiz-adv-x="502" 
d="M511 361q0 -43 -15 -99q-25 -94 -66 -163q-60 -101 -132 -101q-60 0 -60 45q0 16 11.5 52t11.5 49q0 23 -25 23q-29 -7 -38 -39l-55 -206q-12 -44 -45 -74q-36 -33 -80 -33q6 15 28 46q20 28 29 61l58 216q10 38 27 48.5t35 13.5h50q60 0 60 -50q0 -17 -10 -52.5
t-10 -49.5q0 -22 21 -22q68 35 112 196q28 102 28 156q0 48 -13 72q-17 30 -60 38q-126 -22 -149 -105q-17 -63 -54 -63q-23 0 -23 25q0 4 14 55.5t83 77.5q65 24 135 32q73 -4 102.5 -38.5t29.5 -110.5zM109 222q0 -18 -13.5 -31t-31.5 -13q-23 0 -23 22q0 16 12.5 30
t31.5 14q24 0 24 -22zM84 119q0 -18 -13.5 -31t-31.5 -13q-23 0 -23 22q0 16 12.5 30t31.5 14q24 0 24 -22z" />
    <glyph glyph-name="uniE804" unicode="&#xe804;" horiz-adv-x="320" 
d="M259 594q0 -18 -13.5 -31t-31.5 -13q-23 0 -23 22q0 15 13 29.5t31 14.5q24 0 24 -22zM533 637q0 -14 -7.5 -24.5t-17.5 -10.5q-5 0 -13 8q-24 30 -55 30q-82 0 -139 -212l-74 -275q-18 -65 -73 -124q-62 -66 -125 -66q-24 0 -24 18q0 14 13.5 31t26.5 17q8 0 22 -5.5
t18 -5.5q39 0 75 135l74 275q28 104 85 164q67 72 165 71q7 0 13 -1h6q30 0 30 -25z" />
    <glyph glyph-name="uniE805" unicode="&#xe805;" horiz-adv-x="320" 
d="M259 594q0 -18 -13.5 -31t-31.5 -13q-23 0 -23 22q0 15 13 29.5t31 14.5q24 0 24 -22zM533 637q0 -14 -7.5 -24.5t-17.5 -10.5q-5 0 -13 8q-24 30 -55 30q-82 0 -139 -212l-74 -275q-18 -65 -73 -124q-62 -66 -125 -66q-24 0 -24 18q0 14 13.5 31t26.5 17q8 0 22 -5.5
t18 -5.5q39 0 75 135l74 275q28 104 85 164q67 72 165 71q7 0 13 -1h6q30 0 30 -25zM138 229q0 -18 -13.5 -31t-31.5 -13q-23 0 -23 22q0 17 13.5 30.5t30.5 13.5q24 0 24 -22z" />
    <glyph glyph-name="uniFB20" unicode="&#xfb20;" horiz-adv-x="428" 
d="M525 541q0 -9 -8.5 -15.5t-17.5 -3.5q-12 4 -22 4q-21 0 -77 -16q-39 -11 -57 -22q50 -38 70 -76.5t20 -101.5q0 -69 -34 -149q-30 -71 -82 -114q-59 -49 -130 -49q-114 0 -114 139q0 40 20 118q13 51 62 112q45 57 93 90q45 31 52 31q-19 19 -52 27q-24 6 -27 6
q-13 0 -19 -13q-10 -20 -11 -21q-4 -4 -10 -4q-16 0 -12 18q2 14 26 25q21 9 37 9q34 0 70 -20q15 -8 22 -14q23 10 71 27q31 9 94 22l15 2h5q16 0 16 -11zM366 317q0 90 -52 155q-11 0 -56 -55q-36 -45 -50 -67q-49 -76 -68 -180q-6 -33 -6 -56q0 -88 61 -88q65 0 107 66
q26 41 50 126q14 50 14 99z" />
    <glyph glyph-name="uniFB2A" unicode="&#xfb2a;" horiz-adv-x="426" 
d="M530 594q0 -18 -13.5 -31t-31.5 -13q-23 0 -23 22q0 15 13 29.5t31 14.5q24 0 24 -22zM461 397q0 -29 -10 -65q-19 -68 -67 -98q-38 -23 -116 -32q-46 0 -46 14q0 4 3 8q24 28 31 28q2 0 6 -14t12 -14q84 13 103 85q18 68 18 103t-10 51.5t-40 24.5q-120 -31 -167 -205
q-25 -93 -25 -146q0 -48 12 -72q16 -31 57 -39q33 4 48 9q25 10 31 34q12 46 54 46q20 0 20 -18q0 -60 -65 -79q-45 -13 -95 -18q-71 13 -99 45.5t-28 106.5q0 50 27 151q16 59 65 116q51 61 107 78q42 13 64 13q57 -7 83.5 -32t26.5 -81z" />
    <glyph glyph-name="uniFB2B" unicode="&#xfb2b;" horiz-adv-x="426" 
d="M232 594q0 -18 -13.5 -31t-31.5 -13q-23 0 -23 22q0 15 13 29.5t31 14.5q24 0 24 -22zM461 397q0 -29 -10 -65q-19 -68 -67 -98q-38 -23 -116 -32q-46 0 -46 14q0 4 3 8q24 28 31 28q2 0 6 -14t12 -14q84 13 103 85q18 68 18 103t-10 51.5t-40 24.5q-120 -31 -167 -205
q-25 -93 -25 -146q0 -48 12 -72q16 -31 57 -39q33 4 48 9q25 10 31 34q12 46 54 46q20 0 20 -18q0 -60 -65 -79q-45 -13 -95 -18q-71 13 -99 45.5t-28 106.5q0 50 27 151q16 59 65 116q51 61 107 78q42 13 64 13q57 -7 83.5 -32t26.5 -81z" />
    <glyph glyph-name="uniFB2C" unicode="&#xfb2c;" horiz-adv-x="426" 
d="M530 594q0 -18 -13.5 -31t-31.5 -13q-23 0 -23 22q0 15 13 29.5t31 14.5q24 0 24 -22zM329 365q0 -18 -13.5 -31t-31.5 -13q-23 0 -23 22q0 14 13 29t31 15q24 0 24 -22zM461 397q0 -29 -10 -65q-19 -68 -67 -98q-38 -23 -116 -32q-46 0 -46 14q0 4 3 8q24 28 31 28
q2 0 6 -14t12 -14q84 13 103 85q18 68 18 103t-10 51.5t-40 24.5q-120 -31 -167 -205q-25 -93 -25 -146q0 -48 12 -72q16 -31 57 -39q33 4 48 9q25 10 31 34q12 46 54 46q20 0 20 -18q0 -60 -65 -79q-45 -13 -95 -18q-71 13 -99 45.5t-28 106.5q0 50 27 151q16 59 65 116
q51 61 107 78q42 13 64 13q57 -7 83.5 -32t26.5 -81z" />
    <glyph glyph-name="uniFB2D" unicode="&#xfb2d;" horiz-adv-x="426" 
d="M232 594q0 -18 -13.5 -31t-31.5 -13q-23 0 -23 22q0 15 13 29.5t31 14.5q24 0 24 -22zM329 365q0 -18 -13.5 -31t-31.5 -13q-23 0 -23 22q0 14 13 29t31 15q24 0 24 -22zM461 397q0 -29 -10 -65q-19 -68 -67 -98q-38 -23 -116 -32q-46 0 -46 14q0 4 3 8q24 28 31 28
q2 0 6 -14t12 -14q84 13 103 85q18 68 18 103t-10 51.5t-40 24.5q-120 -31 -167 -205q-25 -93 -25 -146q0 -48 12 -72q16 -31 57 -39q33 4 48 9q25 10 31 34q12 46 54 46q20 0 20 -18q0 -60 -65 -79q-45 -13 -95 -18q-71 13 -99 45.5t-28 106.5q0 50 27 151q16 59 65 116
q51 61 107 78q42 13 64 13q57 -7 83.5 -32t26.5 -81z" />
    <glyph glyph-name="uniFB2E" unicode="&#xfb2e;" horiz-adv-x="493" 
d="M517 403q0 -69 -35 -69q-15 0 -29 10t-9 24q6 18 6 44q0 38 -19 55q-15 14 -54 21q-131 -33 -172 -188q-29 -108 -29 -159q0 -53 15 -77q17 -30 65 -38q50 8 78.5 26t39 47t25 38t29.5 9q20 0 20 -19q0 -76 -81 -102q-58 -19 -118 -25q-53 4 -75 13q-39 16 -39 56l-5 -19
q-10 -37 -35 -52q-21 -12 -62 -12q16 27 46 107l117 437q35 129 144 129q-50 -40 -75 -129l-20 -72q41 43 138 52q65 -7 94 -24q40 -25 40 -83zM227 -143h-41v41h41v-41z" />
    <glyph glyph-name="uniFB2F" unicode="&#xfb2f;" horiz-adv-x="493" 
d="M517 403q0 -69 -35 -69q-15 0 -29 10t-9 24q6 18 6 44q0 38 -19 55q-15 14 -54 21q-131 -33 -172 -188q-29 -108 -29 -159q0 -53 15 -77q17 -30 65 -38q50 8 78.5 26t39 47t25 38t29.5 9q20 0 20 -19q0 -76 -81 -102q-58 -19 -118 -25q-53 4 -75 13q-39 16 -39 56l-5 -19
q-10 -37 -35 -52q-21 -12 -62 -12q16 27 46 107l117 437q35 129 144 129q-50 -40 -75 -129l-20 -72q41 43 138 52q65 -7 94 -24q40 -25 40 -83zM296 -143h-176v41h176v-41z" />
    <glyph glyph-name="uniFB30" unicode="&#xfb30;" horiz-adv-x="493" 
d="M517 403q0 -69 -35 -69q-15 0 -29 10t-9 24q6 18 6 44q0 38 -19 55q-15 14 -54 21q-131 -33 -172 -188q-29 -108 -29 -159q0 -53 15 -77q17 -30 65 -38q50 8 78.5 26t39 47t25 38t29.5 9q20 0 20 -19q0 -76 -81 -102q-58 -19 -118 -25q-53 4 -75 13q-39 16 -39 56l-5 -19
q-10 -37 -35 -52q-21 -12 -62 -12q16 27 46 107l117 437q35 129 144 129q-50 -40 -75 -129l-20 -72q41 43 138 52q65 -7 94 -24q40 -25 40 -83zM297 -143h-68l3 -100h-47l2 100h-66v41h176v-41z" />
    <glyph glyph-name="uniFB31" unicode="&#xfb31;" horiz-adv-x="478" 
d="M328 310q0 -18 -13.5 -31t-31.5 -13q-23 0 -23 22q0 17 13.5 30.5t30.5 13.5q24 0 24 -22zM487 361q0 -45 -15 -99q-27 -96 -66 -163q-60 -101 -132 -101q-60 0 -60 45q0 15 11.5 52.5t11.5 48.5q0 23 -25 23q-30 -7 -38 -39l-9 -35q-11 -42 -47 -74.5t-78 -32.5
q4 14 26.5 45.5t30.5 61.5l12 45q14 53 62 62h50q60 0 60 -50q0 -18 -10 -52t-10 -50q0 -22 21 -22q46 24 83 110q16 38 29 86q28 106 28 156q0 48 -13 72q-17 30 -60 38q-63 -11 -98.5 -36t-50 -68.5t-27.5 -53.5t-27 -10q-23 0 -23 25q0 46 27 81.5t70 51.5q65 24 135 32
q22 -1 79 -20q53 -17 53 -129z" />
    <glyph glyph-name="uniFB32" unicode="&#xfb32;" horiz-adv-x="467" 
d="M504 481q0 -18 -12 -45q-38 -85 -44 -116l-15 -102q-5 -32 -26 -32q-9 0 -23 9q-4 1 -9 7t-5 17q0 10 5 31t5 32q0 36 -18 51q-13 12 -51 19q-118 -36 -161 -194q-22 -81 -22 -127q0 -50 16 -75q18 -28 64 -36q81 7 95 57q17 60 55 60q19 0 19 -22q0 -76 -73 -99
q-57 -18 -103 -22q-74 10 -105 41q-34 34 -34 108q0 64 26 135t69 114q80 80 160 80q30 0 45 -4q4 -1 11 -4.5t10 -5.5q21 0 35 49q11 37 11 69q0 13 -7.5 32.5t-6.5 25.5q89 0 89 -53zM296 160q0 -18 -13.5 -31t-31.5 -13q-23 0 -23 22q0 17 13.5 30.5t30.5 13.5
q24 0 24 -22z" />
    <glyph glyph-name="uniFB33" unicode="&#xfb33;" horiz-adv-x="438" 
d="M319 380q0 -18 -13.5 -31t-31.5 -13q-23 0 -23 22q0 17 13.5 30.5t30.5 13.5q24 0 24 -22zM456 391q0 -26 -9 -61q-18 -68 -144 -116q35 -53 35 -98q0 -73 -58 -102q-38 -19 -76 -28q30 36 41 53q21 31 28.5 62.5t7.5 54.5q0 24 -4 33q-2 6 -5 14q-11 -4 -24 -4
q-27 0 -27 21q0 14 9.5 24t23.5 10q25 0 39 -24q67 30 84 92q13 48 13 82q0 39 -13.5 58t-50.5 26q-114 -13 -138 -97q-9 -33 -17 -43q-12 -18 -39 -18q-23 0 -23 16q0 4 1 8q14 56 57.5 95.5t101.5 51.5q44 9 63 9q63 -7 91 -31q33 -28 33 -88z" />
    <glyph glyph-name="uniFB34" unicode="&#xfb34;" horiz-adv-x="458" 
d="M472 366q0 -48 -15 -104l-45 -169q-28 -107 -86 -107l74 276q18 67 18 118q0 48 -13 71q-16 29 -59 37q-108 -7 -136 -108q-13 -46 -18 -58q-17 -35 -44 -35q-22 0 -22 25q0 80 74.5 139t151.5 59q66 -10 93 -43t27 -101zM315 240q0 -18 -13.5 -31t-31.5 -13
q-23 0 -23 22q0 17 13.5 30.5t30.5 13.5q24 0 24 -22zM174 176l-22 -83q-28 -107 -97 -107l51 190q3 13 12 19.5t21 6.5t25 -7.5t10 -18.5z" />
    <glyph glyph-name="uniFB35" unicode="&#xfb35;" horiz-adv-x="236" 
d="M269 472q0 -26 -11 -67l-84 -312q-29 -107 -97 -107l113 419q16 59 16 89q0 18 -5.5 25.5t-3.5 14.5q38 0 55 -12.5t17 -49.5zM118 299q0 -18 -13.5 -31t-31.5 -13q-23 0 -23 22q0 16 12.5 30t31.5 14q24 0 24 -22z" />
    <glyph glyph-name="uniFB36" unicode="&#xfb36;" horiz-adv-x="468" 
d="M427 191q0 -45 -14 -98q-20 -77 -64 -135q-50 -68 -118 -89q-43 -13 -64 -13q-64 7 -91 24q-39 24 -39 81q0 54 23 81q10 11 20 11q16 0 25.5 -16t5.5 -32q-7 -28 -7 -47q0 -39 17 -55q14 -14 53 -21q124 34 161 174q27 101 27 152q0 48 -13 72q-16 31 -58 38
q-46 0 -70.5 -17t-41.5 -59q-20 -74 -92 -74q18 45 40 105q7 25 14.5 76t14.5 75q12 42 57.5 77t88.5 35q8 0 10 -2q-29 -18 -55.5 -52t-35.5 -66q-13 -48 -13 -77q0 -11 0.5 -15t1.5 -6q30 24 82 24q73 -10 104 -43.5t31 -107.5zM266 127q0 -18 -13.5 -31t-31.5 -13
q-23 0 -23 22q0 17 13.5 30.5t30.5 13.5q24 0 24 -22z" />
    <glyph glyph-name="uniFB38" unicode="&#xfb38;" horiz-adv-x="450" 
d="M620 629q0 -30 -40 -30q-150 0 -255 -79.5t-144 -223.5q-37 -135 -37 -173q0 -46 16 -67.5t59 -29.5q106 27 142 161q19 70 19 112q0 53 -32 62q-14 0 -26 -12l-24 -24q-4 0 -8 11q-7 18 20 31q22 10 41 10q50 -7 70.5 -30.5t20.5 -74.5q0 -55 -22.5 -112t-60.5 -92
q-74 -68 -147 -68q-69 7 -99 34q-35 31 -35 98q0 28 28 135q25 97 117 197q88 96 183 140q101 46 187 46q27 0 27 -21zM291 211q0 -18 -13.5 -31t-31.5 -13q-23 0 -23 22q0 17 13.5 30.5t30.5 13.5q24 0 24 -22z" />
    <glyph glyph-name="uniFB39" unicode="&#xfb39;" horiz-adv-x="236" 
d="M262 472q0 -26 -11 -67l-26 -96q-29 -107 -97 -107l55 203q16 59 16 89q0 15 -5.5 24t-3.5 16q38 0 55 -12.5t17 -49.5zM137 374q0 -18 -13.5 -31t-31.5 -13q-23 0 -23 22q0 17 13.5 30.5t30.5 13.5q24 0 24 -22z" />
    <glyph glyph-name="uniFB3A" unicode="&#xfb3a;" horiz-adv-x="478" 
d="M335 321q0 -18 -13.5 -31t-31.5 -13q-23 0 -23 22q0 17 13.5 30.5t30.5 13.5q24 0 24 -22zM487 361q0 -45 -15 -99q-27 -96 -66 -163q-60 -101 -132 -101q-60 0 -60 45q0 15 11.5 52.5t11.5 48.5q0 23 -25 23q-29 -7 -38 -39l-55 -206q-11 -43 -46.5 -75t-78.5 -32
q3 11 25.5 43t31.5 64l58 216q14 53 62 62h50q60 0 60 -50q0 -18 -10 -52t-10 -50q0 -22 21 -22q46 24 83 110q16 38 29 86q28 106 28 156q0 48 -13 72q-17 30 -60 38q-63 -11 -98.5 -36t-50 -68.5t-27.5 -53.5t-27 -10q-23 0 -23 25q0 46 27 81.5t70 51.5q65 24 135 32
q22 -1 79 -20q53 -17 53 -129z" />
    <glyph glyph-name="uniFB3B" unicode="&#xfb3b;" horiz-adv-x="488" 
d="M321 271q0 -18 -13.5 -31t-31.5 -13q-23 0 -23 22q0 17 13.5 30.5t30.5 13.5q24 0 24 -22zM495 361q0 -45 -15 -99q-23 -85 -66 -147q-52 -77 -123 -100q-46 -15 -65 -15q-48 4 -100.5 23.5t-52.5 88.5q0 52 20 72q8 8 20 8q13 0 25 -12t9 -25q-6 -24 -6 -43
q0 -44 25 -64q19 -15 67 -22q127 37 169 195q28 106 28 157q0 48 -13 72q-17 30 -60 38q-63 -11 -98.5 -36t-50 -68.5t-27.5 -53.5t-27 -10q-23 0 -23 25q0 46 27 81.5t70 51.5q65 24 135 32q22 -1 79 -20q53 -17 53 -129z" />
    <glyph glyph-name="uniFB3C" unicode="&#xfb3c;" horiz-adv-x="320" 
d="M533 637q0 -14 -7.5 -24.5t-17.5 -10.5q-5 0 -13 8q-24 30 -55 30q-82 0 -139 -212l-74 -275q-18 -65 -73 -124q-62 -66 -125 -66q-24 0 -24 18q0 14 13.5 31t26.5 17q8 0 22 -5.5t18 -5.5q39 0 75 135l74 275q28 104 85 164q67 72 165 71q7 0 13 -1h6q30 0 30 -25z
M143 226q0 -18 -13.5 -31t-31.5 -13q-23 0 -23 22q0 17 13.5 30.5t30.5 13.5q24 0 24 -22z" />
    <glyph glyph-name="uniFB3E" unicode="&#xfb3e;" horiz-adv-x="502" 
d="M626 623q-86 -54 -126 -202l-104 -386q-10 -37 -62 -37q-30 0 -34 18l-75 381q-4 0 -5 1q-6 -9 -10 -24l-67 -249q-37 -139 -124 -139q32 52 56 139l104 385q5 20 30 20q23 0 27 -20l83 -459q1 -8 8 -8q3 0 5 7l103 383q51 190 173 190h18zM244 151q0 -18 -13.5 -31
t-31.5 -13q-23 0 -23 22q0 17 13.5 30.5t30.5 13.5q24 0 24 -22z" />
    <glyph glyph-name="uniFB40" unicode="&#xfb40;" horiz-adv-x="303" 
d="M356 534q-34 -61 -56 -144l-86 -324q-14 -53 -53 -78q-31 -19 -92 -26q-73 4 -67 27q11 39 39 39q20 0 20 -22q0 -7 -1 -9q-1 -10 6 -12t21 -4q38 9 55 71l102 382q27 100 112 100zM144 227q0 -18 -13.5 -31t-31.5 -13q-23 0 -23 22q0 17 13.5 30.5t30.5 13.5
q24 0 24 -22z" />
    <glyph glyph-name="uniFB41" unicode="&#xfb41;" horiz-adv-x="483" 
d="M490 370q0 -46 -16 -108q-21 -81 -65 -147q-53 -79 -121 -101q-43 -14 -64 -14q-76 10 -108.5 46t-32.5 113q0 82 33 161q34 84 93 134q114 96 232 96q16 0 16 -9q0 -7 -40 -16q-26 -5 -51 -10q-60 -18 -116 -81.5t-72 -126.5q-29 -112 -29 -161q0 -53 15 -80
q19 -32 67 -40q155 48 193 316q5 35 5 60q0 56 -28 64q-34 -6 -57.5 -21.5t-53.5 -57.5q-4 -5 3.5 -17.5t3.5 -16.5q-17 -19 -34 -19q-11 0 -11 11q0 24 40 70.5t65 54.5q34 10 50 12q52 -5 69 -32q14 -22 14 -80zM315 251q0 -18 -13.5 -31t-31.5 -13q-23 0 -23 22
q0 17 13.5 30.5t30.5 13.5q24 0 24 -22z" />
    <glyph glyph-name="uniFB43" unicode="&#xfb43;" horiz-adv-x="371" 
d="M453 574q0 -17 -7 -44q-13 -50 -74 -88q-35 -22 -110 -50l-64 -239q-18 -66 -73 -125q-61 -65 -124 -65q-24 0 -24 18q0 14 13.5 31t26.5 17q4 0 18.5 -5.5t20.5 -5.5q38 0 74 135l59 221q-75 -23 -84 -62q-5 -22 -5 -28q0 -20 18 -24q13 0 13 -11q0 -10 -10 -19t-20 -9
q-16 0 -27 19q-6 11 -6 29q0 64 49 94q37 23 79 35l30 112q17 64 47 98.5t91 50.5q45 -5 65 -22q24 -19 24 -63zM401 581q0 27 -9 39.5t-34 17.5q-10 -3 -20 -8q-15 -8 -28 -58l-42 -158q31 0 75 43q41 40 50 73q8 30 8 51z" />
    <glyph glyph-name="uniFB44" unicode="&#xfb44;" horiz-adv-x="438" 
d="M322 367q0 -18 -13.5 -31t-31.5 -13q-23 0 -23 22q0 17 13.5 30.5t30.5 13.5q24 0 24 -22zM451 358q0 -48 -15 -102q-23 -83 -67 -146q-53 -76 -123 -98q-45 -14 -64 -14q-60 7 -84 22q-36 22 -36 75q0 48 20 86q23 43 64 59q53 20 109 28q44 0 44 -54q0 -22 -10 -41
q-11 -23 -31 -23q-23 0 -23 16q0 9 18 36t18 31q0 11 -24 11q-87 -14 -104 -80q-13 -50 -13 -71q0 -33 15 -47q12 -12 45 -20q127 37 168 192q28 106 28 158q0 48 -13 72q-16 29 -59 40q-86 -8 -102 -68q-19 -69 -57 -69q-21 0 -21 26q0 81 78 108q53 19 108 25
q75 -4 103 -39t28 -113z" />
    <glyph glyph-name="uniFB46" unicode="&#xfb46;" horiz-adv-x="429" 
d="M503 525q0 -56 -19 -86.5t-71 -54.5q-42 -19 -51 -25q-28 -19 -28 -46q0 -20 34 -61t34 -61q0 -72 -74 -132.5t-153 -60.5q-46 5 -67 22q-24 20 -24 64q0 49 20 69q8 8 19 8q13 0 25.5 -11.5t9.5 -23.5q-8 -30 -8 -51q0 -45 33 -49q111 7 137 105q18 67 18 84
q0 33 -36 67q-34 31 -31 44q4 16 75.5 59t81 80.5t9.5 70.5q0 67 -29 84q-14 8 -48 13q-19 0 -26 -10q-8 -18 -13 -26q-6 -12 -29 -12q-35 0 -35 22q0 19 35 36q25 12 74 12q36 -4 44 -6q22 -4 44 -14q49 -22 49 -110zM269 213q0 -18 -13.5 -31t-31.5 -13q-23 0 -23 22
q0 17 13.5 30.5t30.5 13.5q24 0 24 -22z" />
    <glyph glyph-name="uniFB47" unicode="&#xfb47;" horiz-adv-x="453" 
d="M463 366q0 -50 -15 -104q-57 -206 -161 -248q-35 -14 -51 -14q-24 0 -45 3q-4 3 -12 11q37 34 52 34q11 0 12 -9v-13q95 34 138 196q28 106 28 158q0 48 -13 71q-16 29 -59 37q-108 -7 -136 -108q-13 -46 -18 -58q-17 -35 -44 -35q-22 0 -22 25q0 80 74.5 139t151.5 59
q66 -10 93 -43t27 -101zM309 272q0 -18 -13.5 -31t-31.5 -13q-23 0 -23 22q0 17 13.5 30.5t30.5 13.5q24 0 24 -22zM165 176l-68 -253q-29 -107 -96 -107l28 107l68 253q3 13 12 19.5t21 6.5t25 -7.5t10 -18.5z" />
    <glyph glyph-name="uniFB48" unicode="&#xfb48;" horiz-adv-x="443" 
d="M457 366q0 -48 -15 -104l-45 -169q-28 -107 -86 -107l74 276q18 67 18 118q0 47 -13 71q-17 29 -59 37q-108 -7 -136 -108q-13 -46 -18 -58q-17 -35 -44 -35q-22 0 -22 25q0 37 22 77q21 37 51 61q76 60 153 60q66 -10 93 -43t27 -101z" />
    <glyph glyph-name="uniFB49" unicode="&#xfb49;" horiz-adv-x="426" 
d="M329 365q0 -18 -13.5 -31t-31.5 -13q-23 0 -23 22q0 14 13 29t31 15q24 0 24 -22zM461 397q0 -29 -10 -65q-19 -68 -67 -98q-38 -23 -116 -32q-46 0 -46 14q0 4 3 8q24 28 31 28q2 0 6 -14t12 -14q84 13 103 85q18 68 18 103t-10 51.5t-40 24.5q-120 -31 -167 -205
q-25 -93 -25 -146q0 -48 12 -72q16 -31 57 -39q33 4 48 9q25 10 31 34q12 46 54 46q20 0 20 -18q0 -60 -65 -79q-45 -13 -95 -18q-71 13 -99 45.5t-28 106.5q0 50 27 151q16 59 65 116q51 61 107 78q42 13 64 13q57 -7 83.5 -32t26.5 -81z" />
    <glyph glyph-name="uniFB4A" unicode="&#xfb4a;" horiz-adv-x="503" 
d="M367 291q0 -18 -13.5 -31t-31.5 -13q-23 0 -23 22q0 17 13.5 30.5t30.5 13.5q24 0 24 -22zM512 377q0 -52 -18 -119l-43 -160q-13 -49 -31 -73q-24 -31 -67 -39l73 272q24 89 24 147q0 83 -50 83q-67 -10 -104 -51q-31 -35 -50 -107l-70 -264q-14 -53 -53 -78
q-31 -19 -92 -26q-73 4 -67 27q11 39 39 39q20 0 20 -22q0 -7 -1 -9q-1 -10 6 -12t21 -4q38 9 55 71l71 266q4 15 -8 15q-11 0 -34 -15h-3q0 6 49 52q14 13 26 58q10 39 10 64q0 11 -2.5 25t-1.5 17q72 0 72 -67q67 43 123 43q106 0 106 -133z" />
    <glyph glyph-name="uniFB4B" unicode="&#xfb4b;" horiz-adv-x="221" 
d="M286 634q0 -18 -13.5 -31t-31.5 -13q-23 0 -23 22q0 15 13 29.5t31 14.5q24 0 24 -22zM250 472q0 -26 -11 -67l-84 -312q-29 -107 -97 -107l113 419q16 59 16 89q0 16 -5 25t-4 15q38 0 55 -12.5t17 -49.5z" />
    <glyph glyph-name="uniFB4C" unicode="&#xfb4c;" horiz-adv-x="478" 
d="M495 631l-13 -47h-239l13 47h239zM487 361q0 -45 -15 -99q-27 -96 -66 -163q-60 -101 -132 -101q-60 0 -60 45q0 17 11.5 52.5t11.5 48.5q0 23 -25 23q-30 -7 -38 -39l-9 -35q-11 -43 -45 -74q-37 -33 -80 -33q4 12 26.5 44t30.5 63l12 45q14 53 62 62h50q60 0 60 -50
q0 -18 -10 -52t-10 -50q0 -22 21 -22q69 36 111 196q29 110 29 156q0 48 -13 72q-17 30 -60 38q-128 -22 -149 -104q-17 -64 -54 -64q-23 0 -23 25q0 46 27 81.5t70 51.5q65 24 135 32q75 -4 103.5 -37.5t28.5 -111.5z" />
    <glyph glyph-name="uniFB4D" unicode="&#xfb4d;" horiz-adv-x="488" 
d="M508 631l-13 -47h-239l13 47h239zM495 361q0 -45 -15 -99q-23 -84 -66 -147q-52 -77 -122 -100q-46 -15 -66 -15q-73 6 -105 24q-48 26 -48 88q0 52 19 71q9 9 21 9q13 0 25 -12t9 -25q-6 -24 -6 -43q0 -44 25 -64q20 -15 67 -22q126 37 168 195q29 110 29 157
q0 48 -13 72q-17 30 -60 38q-128 -22 -149 -104q-17 -64 -54 -64q-23 0 -23 25q0 46 27 81.5t70 51.5q65 24 135 32q75 -4 103.5 -37.5t28.5 -111.5z" />
    <glyph glyph-name="uniFB4E" unicode="&#xfb4e;" horiz-adv-x="438" 
d="M476 631l-13 -47h-239l13 47h239zM451 358q0 -48 -15 -102q-23 -83 -66 -145q-53 -76 -123 -98q-48 -15 -65 -15q-60 7 -84 22q-36 22 -36 75q0 48 20 86q23 43 64 59q53 20 109 28q44 0 44 -54q0 -23 -9 -41q-11 -23 -32 -23q-23 0 -23 16q0 8 18 35t18 32q0 11 -24 11
q-87 -14 -104 -80q-13 -50 -13 -71q0 -33 15 -47q12 -12 45 -20q126 37 167 192q29 110 29 158q0 47 -14 72q-16 30 -58 40q-86 -8 -102 -67q-19 -70 -57 -70q-21 0 -21 26q0 81 77 108q53 19 109 25q74 -4 102.5 -39.5t28.5 -112.5z" />
    <glyph glyph-name="uniFB4F" unicode="&#xfb4f;" horiz-adv-x="470" 
d="M435 62q0 -40 -36 -70l-218 262q-44 -39 -44 -65q0 -15 25 -56l39 -64l-19 -69h-120v33l37 12q-25 90 -25 111q0 61 85 125l-59 71q-56 0 -73 25q-13 19 -13 78q0 75 26 118q-5 7 -33 24q-21 14 -21 32q0 54 37 74v-4q0 -12 47 -34q32 -14 32 -36q0 -9 -20 -54t-20 -72
q0 -45 53 -45h14l169 -203q2 17 28 57q8 12 30 44q-5 -1 -11 -1q-69 0 -69 85q0 44 40 56q9 -38 31 -38h36q49 0 49 -68q0 -8 -5 -33h-31l-42 -70q-17 -28 -28 -66l80 -97q29 -34 29 -62z" />
    <glyph glyph-name="glyph147" horiz-adv-x="470" 
 />
  </font>
</defs>
</svg>
