<?xml version="1.0" encoding="utf-8"?>
<!-- Generator: Adobe Illustrator 19.1.0, SVG Export Plug-In . SVG Version: 6.00 Build 0)  -->
<!DOCTYPE svg PUBLIC "-//W3C//DTD SVG 1.1//EN" "http://www.w3.org/Graphics/SVG/1.1/DTD/svg11.dtd">
<svg width="20px" height="17px" version="1.1" id="Layer_1" xmlns="http://www.w3.org/2000/svg" xmlns:xlink="http://www.w3.org/1999/xlink" x="0px" y="0px"
	 viewBox="-469 272 20 17" style="enable-background:new -469 272 20 17;" xml:space="preserve">
<g>
	<path id="code" style="fill:#AFB1C4;stroke:#484B63;stroke-width:0.6;" class="st0" d="M-466.9,285.3c1.1,1.7,2.8,2.4,4.7,2.6c1.6,0.1,3.3,0.1,4.9,0.1c1.2,0,2.3-0.1,3.4-0.5
		c1.7-0.6,2.8-1.8,3.4-3.6c0.3-1,0.4-2,0.4-3.1c0-1.1-0.3-2.1-1-3c-0.2-0.3-0.4-0.5-0.3-0.9c0.1-0.6,0-1.2-0.1-1.7
		c-0.1-0.7-0.3-1.4-0.6-2.1c-0.8,0.2-1.5,0.3-2.2,0.7c-0.7,0.4-1.4,0.8-2.1,1.2c-0.1,0-0.2,0.1-0.3,0.1c-1.5-0.3-3-0.2-4.5,0
		c-0.1,0-0.3,0-0.4-0.1c-0.4-0.2-0.7-0.5-1.1-0.7c-1-0.6-2-1-3.1-1.2c0,0.1-0.1,0.1-0.1,0.2c-0.3,0.9-0.6,1.8-0.6,2.8
		c0,0.4-0.1,0.7,0,1.1c0,0.2,0,0.3-0.1,0.5c-0.4,0.5-0.7,1-0.9,1.6c-0.4,1.2-0.4,2.3-0.2,3.5C-467.7,283.6-467.5,284.5-466.9,285.3
		L-466.9,285.3L-466.9,285.3z M-464.7,280.6c0.5-0.4,1.1-0.6,1.7-0.6c0.9,0,1.9,0.1,2.8,0.1c1,0,2.1,0,3.1,0c0.6,0,1.2,0,1.8-0.1
		c1.6,0,2.6,1.4,2.7,2.5c0.1,0.7,0,1.3-0.2,2c-0.3,0.9-1,1.5-1.9,1.8c-1,0.3-2.1,0.5-3.1,0.5c-0.4,0-0.9,0-1.3,0c-1.4,0-2.7,0-4-0.4
		c-1.7-0.5-2.3-1.3-2.4-3C-465.7,282.3-465.5,281.3-464.7,280.6L-464.7,280.6L-464.7,280.6z M-455.7,284.8c0.7,0,1.3-0.7,1.3-1.6
		s-0.6-1.6-1.3-1.6c-0.7,0-1.3,0.7-1.3,1.6S-456.5,284.8-455.7,284.8z M-462.1,284.8c0.7,0,1.3-0.7,1.3-1.6s-0.6-1.6-1.3-1.6
		s-1.3,0.7-1.3,1.6S-462.9,284.8-462.1,284.8z"/>
</g>
</svg>
