<?xml version="1.0" encoding="utf-8"?>
<!-- Generator: Adobe Illustrator 19.1.0, SVG Export Plug-In . SVG Version: 6.00 Build 0)  -->
<!DOCTYPE svg PUBLIC "-//W3C//DTD SVG 1.1//EN" "http://www.w3.org/Graphics/SVG/1.1/DTD/svg11.dtd">
<svg width="19px" height="19px"  version="1.1" id="Layer_1" xmlns="http://www.w3.org/2000/svg" xmlns:xlink="http://www.w3.org/1999/xlink" x="0px" y="0px"
	 viewBox="-470 271 19 19" style="enable-background:new -470 271 19 19;" xml:space="preserve">
<g>
	<path id="linkedin" style="fill:#81A4E3;stroke:#314E55;stroke-width:0.6;" class="st0" d="M-454.8,282.7c0-1.5-1.2-2.7-2.5-2.7c-1,0-1.9,0-2.4,1.3c-0.1,0.2-0.2,0.9-0.2,1.2v6.5h-3.1v-8.2
		v-4.1h3.3l0.2,1.6h0.1c0.5-0.8,1.5-1.6,3.5-1.6c2.4,0,4.5,1.9,4.5,5.3v7h-3.2V282.7L-454.8,282.7z M-467.3,275.3
		c-1,0-1.7-0.7-1.7-1.6c0-0.9,0.7-1.6,1.7-1.6s1.7,0.7,1.7,1.6C-465.5,274.5-466.2,275.3-467.3,275.3L-467.3,275.3L-467.3,275.3z
		 M-468.6,289v-12.3h2.8V289H-468.6L-468.6,289z"/>
</g>
</svg>
