<?xml version="1.0" encoding="utf-8"?>
<!-- Generator: Adobe Illustrator 19.1.0, SVG Export Plug-In . SVG Version: 6.00 Build 0)  -->
<!DOCTYPE svg PUBLIC "-//W3C//DTD SVG 1.1//EN" "http://www.w3.org/Graphics/SVG/1.1/DTD/svg11.dtd">
<svg width="20px" height="18px" version="1.1" id="Layer_1" xmlns="http://www.w3.org/2000/svg" xmlns:xlink="http://www.w3.org/1999/xlink" x="0px" y="0px"
	 viewBox="-469 272 20 18" style="enable-background:new -469 272 20 18;" xml:space="preserve">
<g>
	<path id="tweet" style="fill:#73C9C9;stroke:#314E55;stroke-width:0.6;" class="st0" d="M-452.1,275.5c0,0,1.5-0.1,2.1-0.6c0,0-0.1,0.5-2,2.3c0,0,0.6,9.3-8.8,11.6c0,0-4.8,1.1-8.2-1.6
		c0,0,3.6,0.7,5.7-1.7c0,0-2.6,0-3.5-2.8c0,0,1,0.2,1.6-0.1c0,0-3-0.6-2.9-4c0,0,0.8,0.6,1.5,0.5c0,0-2.7-2.4-1-5.3
		c0,0,3.6,4.4,8,4.2c-0.1-0.3-0.1-0.6-0.1-1c0-2.2,1.7-4,3.8-4c1.1,0,2,0.5,2.7,1.2c0.5,0,1.6-0.1,2.6-0.9
		C-450.6,273.3-450.5,274.2-452.1,275.5L-452.1,275.5L-452.1,275.5z"/>
</g>
</svg>
